<?xml version="1.0" encoding="UTF-8" standalone="no"?>
<!DOCTYPE svg PUBLIC "-//W3C//DTD SVG 1.1//EN" "http://www.w3.org/Graphics/SVG/1.1/DTD/svg11.dtd">
<svg width="100%" height="100%" viewBox="0 0 739 64" version="1.1" xmlns="http://www.w3.org/2000/svg" xmlns:xlink="http://www.w3.org/1999/xlink" xml:space="preserve" xmlns:serif="http://www.serif.com/" style="fill-rule:evenodd;clip-rule:evenodd;stroke-linejoin:round;stroke-miterlimit:2;">
    <g transform="matrix(0.999996,0,0,1,-177,-162.001)">
        <g>
            <g transform="matrix(1,0,0,1,178,206.096)">
                <g transform="matrix(64,0,0,64,0,0)">
                    <path d="M0.12,-0.108C0.106,-0.057 0.1,-0.037 0.042,-0.037L0.004,-0.037C-0.002,-0.037 -0.004,-0.035 -0.004,-0.029L-0.01,-0.007C-0.01,-0.001 -0.008,0.003 -0.002,0.003C0.01,0.003 0.062,0 0.146,0C0.248,0 0.294,0.003 0.306,0.003C0.316,0.003 0.316,0.001 0.318,-0.007L0.32,-0.027C0.322,-0.033 0.32,-0.037 0.314,-0.037L0.278,-0.037C0.236,-0.037 0.221,-0.057 0.234,-0.105L0.358,-0.566C0.373,-0.623 0.396,-0.633 0.438,-0.633L0.464,-0.633C0.472,-0.633 0.474,-0.637 0.474,-0.641L0.48,-0.661C0.482,-0.669 0.478,-0.673 0.468,-0.673C0.454,-0.673 0.412,-0.67 0.326,-0.67C0.246,-0.67 0.192,-0.673 0.18,-0.673C0.172,-0.673 0.168,-0.671 0.168,-0.667L0.162,-0.641C0.162,-0.635 0.164,-0.633 0.172,-0.633L0.218,-0.633C0.244,-0.633 0.26,-0.617 0.246,-0.567L0.12,-0.108Z" style="fill:rgb(163,2,1);fill-rule:nonzero;"/>
                </g>
                <g transform="matrix(64,0,0,64,23.936,0)">
                    <path d="M0.162,-0.098C0.178,-0.138 0.196,-0.168 0.216,-0.2C0.258,-0.268 0.342,-0.348 0.372,-0.348C0.386,-0.348 0.395,-0.34 0.395,-0.324C0.395,-0.312 0.367,-0.236 0.352,-0.194C0.32,-0.106 0.292,-0.038 0.292,-0.02C0.292,-0.002 0.304,0.01 0.326,0.01C0.41,0.01 0.48,-0.06 0.492,-0.076C0.496,-0.082 0.496,-0.086 0.492,-0.088L0.482,-0.096C0.478,-0.1 0.474,-0.1 0.47,-0.098C0.46,-0.084 0.422,-0.05 0.408,-0.05C0.4,-0.05 0.396,-0.056 0.396,-0.066C0.396,-0.08 0.41,-0.118 0.436,-0.184C0.477,-0.287 0.49,-0.334 0.49,-0.36C0.49,-0.388 0.47,-0.416 0.433,-0.416C0.338,-0.416 0.246,-0.29 0.216,-0.244L0.21,-0.248C0.228,-0.292 0.257,-0.36 0.257,-0.382C0.257,-0.396 0.248,-0.416 0.219,-0.416C0.128,-0.416 0.062,-0.34 0.048,-0.322C0.044,-0.318 0.046,-0.314 0.05,-0.312L0.061,-0.301C0.064,-0.298 0.068,-0.298 0.07,-0.302C0.086,-0.318 0.125,-0.354 0.143,-0.354C0.152,-0.354 0.158,-0.348 0.158,-0.338C0.158,-0.324 0.134,-0.262 0.112,-0.198L0.044,-0.013C0.042,-0.007 0.043,-0 0.052,-0L0.116,-0C0.126,-0 0.128,-0.002 0.13,-0.006L0.162,-0.098Z" style="fill:rgb(163,2,1);fill-rule:nonzero;"/>
                </g>
                <g transform="matrix(64,0,0,64,57.856,0)">
                    <path d="M0.247,-0.394C0.277,-0.501 0.309,-0.646 0.387,-0.646C0.413,-0.646 0.421,-0.627 0.423,-0.617C0.427,-0.591 0.439,-0.571 0.477,-0.571C0.501,-0.571 0.523,-0.591 0.523,-0.619C0.523,-0.649 0.491,-0.685 0.417,-0.685C0.353,-0.685 0.291,-0.645 0.265,-0.615C0.197,-0.541 0.181,-0.473 0.151,-0.394L0.067,-0.394C0.059,-0.394 0.057,-0.39 0.055,-0.384L0.05,-0.36C0.049,-0.354 0.051,-0.35 0.057,-0.35L0.143,-0.35L0.053,-0.012C0.005,0.171 -0.043,0.255 -0.089,0.255C-0.101,0.255 -0.107,0.249 -0.109,0.239C-0.111,0.213 -0.127,0.187 -0.159,0.187C-0.187,0.187 -0.205,0.209 -0.205,0.235C-0.205,0.271 -0.173,0.297 -0.121,0.297C-0.004,0.297 0.076,0.167 0.131,0.016C0.173,-0.1 0.217,-0.272 0.239,-0.35L0.339,-0.35C0.347,-0.35 0.349,-0.352 0.35,-0.358L0.355,-0.384C0.357,-0.39 0.355,-0.394 0.349,-0.394L0.247,-0.394Z" style="fill:rgb(163,2,1);fill-rule:nonzero;"/>
                </g>
            </g>
            <g transform="matrix(1,0,0,1,255.44,206.096)">
                <g transform="matrix(64,0,0,64,0,0)">
                    <path d="M0.16,0.01C0.22,0.01 0.266,-0.012 0.304,-0.056C0.364,-0.122 0.39,-0.226 0.39,-0.29C0.39,-0.38 0.324,-0.416 0.266,-0.416C0.212,-0.416 0.164,-0.396 0.124,-0.352C0.068,-0.291 0.04,-0.211 0.04,-0.127C0.04,-0.035 0.101,0.01 0.16,0.01ZM0.146,-0.044C0.124,-0.044 0.104,-0.064 0.104,-0.091C0.104,-0.131 0.124,-0.191 0.157,-0.247C0.206,-0.329 0.244,-0.364 0.285,-0.364C0.314,-0.364 0.328,-0.341 0.328,-0.319C0.328,-0.283 0.297,-0.2 0.26,-0.137C0.221,-0.072 0.185,-0.044 0.146,-0.044Z" style="fill:rgb(163,2,1);fill-rule:nonzero;"/>
                </g>
                <g transform="matrix(64,0,0,64,26.24,0)">
                    <path d="M0.124,-0C0.13,-0 0.134,-0.002 0.136,-0.006L0.17,-0.108C0.181,-0.142 0.192,-0.168 0.202,-0.19C0.232,-0.248 0.288,-0.33 0.316,-0.33C0.33,-0.33 0.336,-0.324 0.344,-0.318C0.352,-0.312 0.362,-0.31 0.374,-0.31C0.392,-0.31 0.416,-0.336 0.416,-0.366C0.416,-0.396 0.392,-0.416 0.364,-0.416C0.298,-0.416 0.227,-0.294 0.201,-0.238L0.194,-0.242C0.216,-0.308 0.234,-0.36 0.234,-0.378C0.234,-0.396 0.224,-0.416 0.194,-0.416C0.112,-0.416 0.054,-0.344 0.036,-0.314C0.034,-0.31 0.034,-0.306 0.036,-0.304L0.048,-0.296C0.052,-0.294 0.056,-0.294 0.058,-0.298C0.072,-0.318 0.112,-0.356 0.13,-0.356C0.14,-0.356 0.148,-0.348 0.148,-0.34C0.148,-0.322 0.115,-0.22 0.1,-0.17L0.05,-0.008C0.048,-0.004 0.052,-0 0.058,-0L0.124,-0Z" style="fill:rgb(163,2,1);fill-rule:nonzero;"/>
                </g>
                <g transform="matrix(64,0,0,64,50.816,0)">
                    <path d="M0.043,-0.012C0.04,-0.004 0.045,-0 0.051,-0L0.114,-0C0.122,-0 0.127,-0.002 0.129,-0.008L0.162,-0.094C0.178,-0.13 0.194,-0.158 0.208,-0.178C0.266,-0.262 0.344,-0.346 0.368,-0.346C0.381,-0.346 0.39,-0.338 0.389,-0.326C0.389,-0.312 0.364,-0.246 0.338,-0.176L0.275,-0.01C0.273,-0.004 0.277,-0 0.285,-0L0.348,-0C0.356,-0 0.361,-0.002 0.363,-0.008L0.394,-0.094C0.408,-0.128 0.426,-0.154 0.432,-0.164C0.494,-0.258 0.574,-0.348 0.598,-0.348C0.612,-0.348 0.619,-0.34 0.619,-0.328C0.619,-0.312 0.607,-0.278 0.576,-0.2C0.538,-0.104 0.516,-0.042 0.516,-0.02C0.516,-0.006 0.528,0.01 0.55,0.01C0.642,0.01 0.726,-0.106 0.73,-0.112C0.732,-0.12 0.732,-0.122 0.728,-0.126L0.714,-0.135C0.712,-0.136 0.708,-0.136 0.706,-0.132C0.7,-0.124 0.652,-0.06 0.63,-0.06C0.624,-0.06 0.62,-0.066 0.618,-0.074C0.618,-0.09 0.638,-0.132 0.658,-0.19C0.688,-0.276 0.713,-0.333 0.713,-0.362C0.713,-0.385 0.694,-0.416 0.658,-0.416C0.566,-0.416 0.488,-0.29 0.434,-0.206L0.426,-0.21C0.442,-0.246 0.479,-0.332 0.479,-0.369C0.479,-0.393 0.458,-0.416 0.424,-0.416C0.334,-0.416 0.246,-0.282 0.204,-0.212L0.196,-0.216C0.204,-0.24 0.26,-0.352 0.26,-0.38C0.26,-0.402 0.247,-0.416 0.217,-0.416C0.144,-0.416 0.072,-0.336 0.052,-0.312C0.05,-0.308 0.052,-0.306 0.054,-0.302L0.066,-0.292C0.07,-0.288 0.074,-0.288 0.078,-0.292C0.086,-0.304 0.138,-0.352 0.15,-0.352C0.159,-0.352 0.163,-0.346 0.163,-0.338C0.163,-0.323 0.135,-0.26 0.112,-0.198L0.043,-0.012Z" style="fill:rgb(163,2,1);fill-rule:nonzero;"/>
                </g>
                <g transform="matrix(64,0,0,64,98.944,0)">
                    <path d="M0.404,-0.418C0.398,-0.418 0.392,-0.416 0.388,-0.41L0.372,-0.382C0.36,-0.398 0.34,-0.416 0.296,-0.416C0.162,-0.416 0.022,-0.196 0.022,-0.062C0.022,-0.02 0.058,0.01 0.084,0.01C0.166,0.01 0.248,-0.096 0.29,-0.158L0.296,-0.156C0.26,-0.052 0.254,-0.03 0.254,-0.016C0.254,-0 0.264,0.01 0.286,0.01C0.364,0.01 0.434,-0.074 0.444,-0.094C0.446,-0.1 0.446,-0.104 0.444,-0.106L0.432,-0.115C0.428,-0.118 0.426,-0.116 0.422,-0.112C0.414,-0.102 0.374,-0.054 0.36,-0.054C0.352,-0.054 0.348,-0.056 0.348,-0.066C0.348,-0.078 0.386,-0.194 0.39,-0.212C0.398,-0.238 0.446,-0.366 0.464,-0.408C0.466,-0.414 0.464,-0.418 0.458,-0.418L0.404,-0.418ZM0.144,-0.058C0.128,-0.058 0.12,-0.068 0.12,-0.09C0.12,-0.146 0.148,-0.236 0.204,-0.315C0.23,-0.352 0.26,-0.376 0.286,-0.376C0.314,-0.376 0.332,-0.348 0.332,-0.332C0.332,-0.3 0.322,-0.27 0.308,-0.242C0.29,-0.204 0.182,-0.058 0.144,-0.058Z" style="fill:rgb(163,2,1);fill-rule:nonzero;"/>
                </g>
                <g transform="matrix(64,0,0,64,128.832,0)">
                    <path d="M0.243,-0.35L0.347,-0.35C0.353,-0.35 0.356,-0.351 0.357,-0.355L0.365,-0.384C0.367,-0.39 0.365,-0.394 0.361,-0.394L0.258,-0.394L0.323,-0.526C0.327,-0.536 0.323,-0.546 0.317,-0.546C0.313,-0.546 0.307,-0.542 0.301,-0.54C0.293,-0.534 0.253,-0.516 0.233,-0.514C0.215,-0.512 0.211,-0.51 0.207,-0.5L0.166,-0.394L0.089,-0.394C0.083,-0.394 0.081,-0.392 0.079,-0.386L0.071,-0.36C0.069,-0.352 0.071,-0.35 0.077,-0.35L0.151,-0.35L0.045,-0.076C0.039,-0.058 0.035,-0.038 0.035,-0.02C0.035,-0.006 0.047,0.01 0.077,0.01C0.167,0.01 0.257,-0.074 0.269,-0.09C0.271,-0.094 0.271,-0.096 0.267,-0.098L0.256,-0.11C0.252,-0.114 0.25,-0.114 0.246,-0.11C0.24,-0.104 0.178,-0.054 0.155,-0.054C0.143,-0.054 0.137,-0.062 0.137,-0.072C0.137,-0.084 0.147,-0.108 0.155,-0.13L0.243,-0.35Z" style="fill:rgb(163,2,1);fill-rule:nonzero;"/>
                </g>
                <g transform="matrix(64,0,0,64,149.184,0)">
                    <path d="M0.251,-0.537C0.287,-0.537 0.31,-0.572 0.31,-0.595C0.31,-0.62 0.289,-0.645 0.249,-0.645C0.218,-0.645 0.193,-0.618 0.193,-0.591C0.193,-0.566 0.211,-0.537 0.251,-0.537ZM0.232,-0.28C0.249,-0.327 0.262,-0.364 0.262,-0.384C0.262,-0.404 0.25,-0.416 0.226,-0.416C0.138,-0.416 0.048,-0.3 0.042,-0.294C0.04,-0.29 0.042,-0.288 0.046,-0.285L0.056,-0.276C0.06,-0.272 0.064,-0.272 0.068,-0.276C0.082,-0.292 0.128,-0.344 0.144,-0.344C0.152,-0.344 0.156,-0.34 0.156,-0.332C0.156,-0.32 0.15,-0.301 0.14,-0.274L0.112,-0.196C0.072,-0.085 0.056,-0.038 0.056,-0.018C0.056,-0.002 0.064,0.01 0.085,0.01C0.194,0.01 0.264,-0.086 0.27,-0.094C0.274,-0.098 0.272,-0.1 0.268,-0.104L0.257,-0.115C0.254,-0.118 0.25,-0.118 0.248,-0.114C0.242,-0.106 0.19,-0.052 0.17,-0.05C0.162,-0.05 0.158,-0.056 0.158,-0.064C0.158,-0.074 0.162,-0.09 0.176,-0.128L0.232,-0.28Z" style="fill:rgb(163,2,1);fill-rule:nonzero;"/>
                </g>
                <g transform="matrix(64,0,0,64,167.872,0)">
                    <path d="M0.16,0.01C0.22,0.01 0.266,-0.012 0.304,-0.056C0.364,-0.122 0.39,-0.226 0.39,-0.29C0.39,-0.38 0.324,-0.416 0.266,-0.416C0.212,-0.416 0.164,-0.396 0.124,-0.352C0.068,-0.291 0.04,-0.211 0.04,-0.127C0.04,-0.035 0.101,0.01 0.16,0.01ZM0.146,-0.044C0.124,-0.044 0.104,-0.064 0.104,-0.091C0.104,-0.131 0.124,-0.191 0.157,-0.247C0.206,-0.329 0.244,-0.364 0.285,-0.364C0.314,-0.364 0.328,-0.341 0.328,-0.319C0.328,-0.283 0.297,-0.2 0.26,-0.137C0.221,-0.072 0.185,-0.044 0.146,-0.044Z" style="fill:rgb(163,2,1);fill-rule:nonzero;"/>
                </g>
                <g transform="matrix(64,0,0,64,194.112,0)">
                    <path d="M0.162,-0.098C0.178,-0.138 0.196,-0.168 0.216,-0.2C0.258,-0.268 0.342,-0.348 0.372,-0.348C0.386,-0.348 0.395,-0.34 0.395,-0.324C0.395,-0.312 0.367,-0.236 0.352,-0.194C0.32,-0.106 0.292,-0.038 0.292,-0.02C0.292,-0.002 0.304,0.01 0.326,0.01C0.41,0.01 0.48,-0.06 0.492,-0.076C0.496,-0.082 0.496,-0.086 0.492,-0.088L0.482,-0.096C0.478,-0.1 0.474,-0.1 0.47,-0.098C0.46,-0.084 0.422,-0.05 0.408,-0.05C0.4,-0.05 0.396,-0.056 0.396,-0.066C0.396,-0.08 0.41,-0.118 0.436,-0.184C0.477,-0.287 0.49,-0.334 0.49,-0.36C0.49,-0.388 0.47,-0.416 0.433,-0.416C0.338,-0.416 0.246,-0.29 0.216,-0.244L0.21,-0.248C0.228,-0.292 0.257,-0.36 0.257,-0.382C0.257,-0.396 0.248,-0.416 0.219,-0.416C0.128,-0.416 0.062,-0.34 0.048,-0.322C0.044,-0.318 0.046,-0.314 0.05,-0.312L0.061,-0.301C0.064,-0.298 0.068,-0.298 0.07,-0.302C0.086,-0.318 0.125,-0.354 0.143,-0.354C0.152,-0.354 0.158,-0.348 0.158,-0.338C0.158,-0.324 0.134,-0.262 0.112,-0.198L0.044,-0.013C0.042,-0.007 0.043,-0 0.052,-0L0.116,-0C0.126,-0 0.128,-0.002 0.13,-0.006L0.162,-0.098Z" style="fill:rgb(163,2,1);fill-rule:nonzero;"/>
                </g>
                <g transform="matrix(64,0,0,64,240.832,0)">
                    <path d="M0.536,-0.665C0.536,-0.669 0.534,-0.671 0.528,-0.671L0.516,-0.673C0.508,-0.673 0.506,-0.673 0.506,-0.669C0.502,-0.649 0.496,-0.635 0.49,-0.635C0.484,-0.635 0.48,-0.637 0.476,-0.639C0.46,-0.651 0.412,-0.685 0.358,-0.685C0.228,-0.685 0.172,-0.581 0.172,-0.509C0.172,-0.406 0.224,-0.354 0.286,-0.286C0.33,-0.238 0.38,-0.2 0.38,-0.136C0.38,-0.081 0.336,-0.031 0.272,-0.031C0.21,-0.031 0.132,-0.099 0.16,-0.243C0.16,-0.249 0.158,-0.251 0.154,-0.253L0.138,-0.257C0.132,-0.257 0.13,-0.257 0.128,-0.253L0.054,-0.035C0.052,-0.027 0.052,-0.027 0.058,-0.025L0.07,-0.019C0.076,-0.017 0.078,-0.019 0.08,-0.023C0.088,-0.037 0.098,-0.053 0.104,-0.061C0.11,-0.067 0.12,-0.069 0.13,-0.059C0.162,-0.023 0.208,0.015 0.272,0.015C0.376,0.015 0.468,-0.053 0.468,-0.181C0.468,-0.292 0.402,-0.348 0.356,-0.394C0.31,-0.44 0.266,-0.472 0.266,-0.542C0.266,-0.585 0.298,-0.639 0.356,-0.639C0.458,-0.639 0.47,-0.519 0.464,-0.479C0.464,-0.473 0.466,-0.469 0.474,-0.469L0.492,-0.469C0.496,-0.469 0.498,-0.471 0.5,-0.475L0.536,-0.665Z" style="fill:rgb(163,2,1);fill-rule:nonzero;"/>
                </g>
                <g transform="matrix(64,0,0,64,273.344,0)">
                    <path d="M0.265,-0.096C0.263,-0.098 0.259,-0.096 0.257,-0.092C0.245,-0.078 0.206,-0.048 0.174,-0.048C0.148,-0.048 0.133,-0.07 0.133,-0.12C0.133,-0.174 0.147,-0.236 0.172,-0.296C0.191,-0.34 0.21,-0.364 0.232,-0.364C0.248,-0.364 0.257,-0.348 0.263,-0.334C0.269,-0.316 0.281,-0.31 0.297,-0.31C0.317,-0.31 0.339,-0.332 0.339,-0.36C0.339,-0.378 0.322,-0.416 0.27,-0.416C0.146,-0.416 0.037,-0.229 0.037,-0.089C0.037,-0.021 0.087,0.01 0.127,0.01C0.201,0.01 0.266,-0.054 0.281,-0.076C0.285,-0.082 0.283,-0.084 0.279,-0.086L0.265,-0.096Z" style="fill:rgb(163,2,1);fill-rule:nonzero;"/>
                </g>
                <g transform="matrix(64,0,0,64,293.696,0)">
                    <path d="M0.251,-0.537C0.287,-0.537 0.31,-0.572 0.31,-0.595C0.31,-0.62 0.289,-0.645 0.249,-0.645C0.218,-0.645 0.193,-0.618 0.193,-0.591C0.193,-0.566 0.211,-0.537 0.251,-0.537ZM0.232,-0.28C0.249,-0.327 0.262,-0.364 0.262,-0.384C0.262,-0.404 0.25,-0.416 0.226,-0.416C0.138,-0.416 0.048,-0.3 0.042,-0.294C0.04,-0.29 0.042,-0.288 0.046,-0.285L0.056,-0.276C0.06,-0.272 0.064,-0.272 0.068,-0.276C0.082,-0.292 0.128,-0.344 0.144,-0.344C0.152,-0.344 0.156,-0.34 0.156,-0.332C0.156,-0.32 0.15,-0.301 0.14,-0.274L0.112,-0.196C0.072,-0.085 0.056,-0.038 0.056,-0.018C0.056,-0.002 0.064,0.01 0.085,0.01C0.194,0.01 0.264,-0.086 0.27,-0.094C0.274,-0.098 0.272,-0.1 0.268,-0.104L0.257,-0.115C0.254,-0.118 0.25,-0.118 0.248,-0.114C0.242,-0.106 0.19,-0.052 0.17,-0.05C0.162,-0.05 0.158,-0.056 0.158,-0.064C0.158,-0.074 0.162,-0.09 0.176,-0.128L0.232,-0.28Z" style="fill:rgb(163,2,1);fill-rule:nonzero;"/>
                </g>
                <g transform="matrix(64,0,0,64,312.384,0)">
                    <path d="M0.3,-0.11C0.298,-0.112 0.294,-0.11 0.292,-0.108C0.27,-0.078 0.23,-0.048 0.184,-0.048C0.156,-0.048 0.13,-0.072 0.13,-0.112C0.13,-0.148 0.136,-0.176 0.14,-0.186C0.178,-0.188 0.232,-0.2 0.286,-0.228C0.344,-0.26 0.378,-0.306 0.378,-0.357C0.378,-0.386 0.354,-0.416 0.308,-0.416C0.254,-0.416 0.198,-0.39 0.158,-0.354C0.076,-0.28 0.034,-0.174 0.034,-0.096C0.034,-0.026 0.074,0.01 0.14,0.01C0.228,0.01 0.296,-0.054 0.318,-0.09C0.32,-0.094 0.32,-0.096 0.315,-0.099L0.3,-0.11ZM0.26,-0.368C0.282,-0.368 0.29,-0.35 0.29,-0.332C0.29,-0.304 0.27,-0.274 0.248,-0.256C0.214,-0.23 0.166,-0.218 0.148,-0.218C0.16,-0.272 0.21,-0.368 0.26,-0.368Z" style="fill:rgb(163,2,1);fill-rule:nonzero;"/>
                </g>
                <g transform="matrix(64,0,0,64,336.064,0)">
                    <path d="M0.162,-0.098C0.178,-0.138 0.196,-0.168 0.216,-0.2C0.258,-0.268 0.342,-0.348 0.372,-0.348C0.386,-0.348 0.395,-0.34 0.395,-0.324C0.395,-0.312 0.367,-0.236 0.352,-0.194C0.32,-0.106 0.292,-0.038 0.292,-0.02C0.292,-0.002 0.304,0.01 0.326,0.01C0.41,0.01 0.48,-0.06 0.492,-0.076C0.496,-0.082 0.496,-0.086 0.492,-0.088L0.482,-0.096C0.478,-0.1 0.474,-0.1 0.47,-0.098C0.46,-0.084 0.422,-0.05 0.408,-0.05C0.4,-0.05 0.396,-0.056 0.396,-0.066C0.396,-0.08 0.41,-0.118 0.436,-0.184C0.477,-0.287 0.49,-0.334 0.49,-0.36C0.49,-0.388 0.47,-0.416 0.433,-0.416C0.338,-0.416 0.246,-0.29 0.216,-0.244L0.21,-0.248C0.228,-0.292 0.257,-0.36 0.257,-0.382C0.257,-0.396 0.248,-0.416 0.219,-0.416C0.128,-0.416 0.062,-0.34 0.048,-0.322C0.044,-0.318 0.046,-0.314 0.05,-0.312L0.061,-0.301C0.064,-0.298 0.068,-0.298 0.07,-0.302C0.086,-0.318 0.125,-0.354 0.143,-0.354C0.152,-0.354 0.158,-0.348 0.158,-0.338C0.158,-0.324 0.134,-0.262 0.112,-0.198L0.044,-0.013C0.042,-0.007 0.043,-0 0.052,-0L0.116,-0C0.126,-0 0.128,-0.002 0.13,-0.006L0.162,-0.098Z" style="fill:rgb(163,2,1);fill-rule:nonzero;"/>
                </g>
                <g transform="matrix(64,0,0,64,369.984,0)">
                    <path d="M0.265,-0.096C0.263,-0.098 0.259,-0.096 0.257,-0.092C0.245,-0.078 0.206,-0.048 0.174,-0.048C0.148,-0.048 0.133,-0.07 0.133,-0.12C0.133,-0.174 0.147,-0.236 0.172,-0.296C0.191,-0.34 0.21,-0.364 0.232,-0.364C0.248,-0.364 0.257,-0.348 0.263,-0.334C0.269,-0.316 0.281,-0.31 0.297,-0.31C0.317,-0.31 0.339,-0.332 0.339,-0.36C0.339,-0.378 0.322,-0.416 0.27,-0.416C0.146,-0.416 0.037,-0.229 0.037,-0.089C0.037,-0.021 0.087,0.01 0.127,0.01C0.201,0.01 0.266,-0.054 0.281,-0.076C0.285,-0.082 0.283,-0.084 0.279,-0.086L0.265,-0.096Z" style="fill:rgb(163,2,1);fill-rule:nonzero;"/>
                </g>
                <g transform="matrix(64,0,0,64,390.336,0)">
                    <path d="M0.3,-0.11C0.298,-0.112 0.294,-0.11 0.292,-0.108C0.27,-0.078 0.23,-0.048 0.184,-0.048C0.156,-0.048 0.13,-0.072 0.13,-0.112C0.13,-0.148 0.136,-0.176 0.14,-0.186C0.178,-0.188 0.232,-0.2 0.286,-0.228C0.344,-0.26 0.378,-0.306 0.378,-0.357C0.378,-0.386 0.354,-0.416 0.308,-0.416C0.254,-0.416 0.198,-0.39 0.158,-0.354C0.076,-0.28 0.034,-0.174 0.034,-0.096C0.034,-0.026 0.074,0.01 0.14,0.01C0.228,0.01 0.296,-0.054 0.318,-0.09C0.32,-0.094 0.32,-0.096 0.315,-0.099L0.3,-0.11ZM0.26,-0.368C0.282,-0.368 0.29,-0.35 0.29,-0.332C0.29,-0.304 0.27,-0.274 0.248,-0.256C0.214,-0.23 0.166,-0.218 0.148,-0.218C0.16,-0.272 0.21,-0.368 0.26,-0.368Z" style="fill:rgb(163,2,1);fill-rule:nonzero;"/>
                </g>
                <g transform="matrix(64,0,0,64,414.016,0)">
                    <path d="M0.252,-0.124C0.252,-0.17 0.234,-0.205 0.214,-0.232C0.203,-0.247 0.168,-0.288 0.168,-0.322C0.168,-0.366 0.19,-0.38 0.21,-0.38C0.226,-0.38 0.23,-0.364 0.234,-0.352C0.24,-0.326 0.256,-0.318 0.274,-0.318C0.296,-0.318 0.312,-0.334 0.312,-0.36C0.312,-0.402 0.268,-0.416 0.234,-0.416C0.14,-0.416 0.086,-0.352 0.086,-0.288C0.084,-0.246 0.103,-0.221 0.123,-0.187C0.144,-0.151 0.17,-0.122 0.168,-0.088C0.168,-0.046 0.146,-0.024 0.118,-0.024C0.1,-0.024 0.092,-0.034 0.086,-0.05C0.078,-0.074 0.062,-0.09 0.038,-0.09C0.016,-0.09 0,-0.072 0,-0.048C0,-0.014 0.034,0.01 0.1,0.01C0.19,0.01 0.252,-0.046 0.252,-0.124Z" style="fill:rgb(163,2,1);fill-rule:nonzero;"/>
                </g>
                <g transform="matrix(64,0,0,64,446.784,0)">
                    <path d="M0.12,-0.108C0.106,-0.057 0.1,-0.037 0.042,-0.037L0.004,-0.037C-0.002,-0.037 -0.004,-0.035 -0.004,-0.029L-0.01,-0.007C-0.01,-0.001 -0.008,0.003 -0.002,0.003C0.01,0.003 0.062,0 0.146,0C0.248,0 0.294,0.003 0.306,0.003C0.316,0.003 0.316,0.001 0.318,-0.007L0.32,-0.027C0.322,-0.033 0.32,-0.037 0.314,-0.037L0.278,-0.037C0.236,-0.037 0.221,-0.057 0.234,-0.105L0.358,-0.566C0.373,-0.623 0.396,-0.633 0.438,-0.633L0.464,-0.633C0.472,-0.633 0.474,-0.637 0.474,-0.641L0.48,-0.661C0.482,-0.669 0.478,-0.673 0.468,-0.673C0.454,-0.673 0.412,-0.67 0.326,-0.67C0.246,-0.67 0.192,-0.673 0.18,-0.673C0.172,-0.673 0.168,-0.671 0.168,-0.667L0.162,-0.641C0.162,-0.635 0.164,-0.633 0.172,-0.633L0.218,-0.633C0.244,-0.633 0.26,-0.617 0.246,-0.567L0.12,-0.108Z" style="fill:rgb(163,2,1);fill-rule:nonzero;"/>
                </g>
                <g transform="matrix(64,0,0,64,470.72,0)">
                    <path d="M0.162,-0.098C0.178,-0.138 0.196,-0.168 0.216,-0.2C0.258,-0.268 0.342,-0.348 0.372,-0.348C0.386,-0.348 0.395,-0.34 0.395,-0.324C0.395,-0.312 0.367,-0.236 0.352,-0.194C0.32,-0.106 0.292,-0.038 0.292,-0.02C0.292,-0.002 0.304,0.01 0.326,0.01C0.41,0.01 0.48,-0.06 0.492,-0.076C0.496,-0.082 0.496,-0.086 0.492,-0.088L0.482,-0.096C0.478,-0.1 0.474,-0.1 0.47,-0.098C0.46,-0.084 0.422,-0.05 0.408,-0.05C0.4,-0.05 0.396,-0.056 0.396,-0.066C0.396,-0.08 0.41,-0.118 0.436,-0.184C0.477,-0.287 0.49,-0.334 0.49,-0.36C0.49,-0.388 0.47,-0.416 0.433,-0.416C0.338,-0.416 0.246,-0.29 0.216,-0.244L0.21,-0.248C0.228,-0.292 0.257,-0.36 0.257,-0.382C0.257,-0.396 0.248,-0.416 0.219,-0.416C0.128,-0.416 0.062,-0.34 0.048,-0.322C0.044,-0.318 0.046,-0.314 0.05,-0.312L0.061,-0.301C0.064,-0.298 0.068,-0.298 0.07,-0.302C0.086,-0.318 0.125,-0.354 0.143,-0.354C0.152,-0.354 0.158,-0.348 0.158,-0.338C0.158,-0.324 0.134,-0.262 0.112,-0.198L0.044,-0.013C0.042,-0.007 0.043,-0 0.052,-0L0.116,-0C0.126,-0 0.128,-0.002 0.13,-0.006L0.162,-0.098Z" style="fill:rgb(163,2,1);fill-rule:nonzero;"/>
                </g>
                <g transform="matrix(64,0,0,64,504.64,0)">
                    <path d="M0.252,-0.124C0.252,-0.17 0.234,-0.205 0.214,-0.232C0.203,-0.247 0.168,-0.288 0.168,-0.322C0.168,-0.366 0.19,-0.38 0.21,-0.38C0.226,-0.38 0.23,-0.364 0.234,-0.352C0.24,-0.326 0.256,-0.318 0.274,-0.318C0.296,-0.318 0.312,-0.334 0.312,-0.36C0.312,-0.402 0.268,-0.416 0.234,-0.416C0.14,-0.416 0.086,-0.352 0.086,-0.288C0.084,-0.246 0.103,-0.221 0.123,-0.187C0.144,-0.151 0.17,-0.122 0.168,-0.088C0.168,-0.046 0.146,-0.024 0.118,-0.024C0.1,-0.024 0.092,-0.034 0.086,-0.05C0.078,-0.074 0.062,-0.09 0.038,-0.09C0.016,-0.09 0,-0.072 0,-0.048C0,-0.014 0.034,0.01 0.1,0.01C0.19,0.01 0.252,-0.046 0.252,-0.124Z" style="fill:rgb(163,2,1);fill-rule:nonzero;"/>
                </g>
                <g transform="matrix(64,0,0,64,524.608,0)">
                    <path d="M0.243,-0.35L0.347,-0.35C0.353,-0.35 0.356,-0.351 0.357,-0.355L0.365,-0.384C0.367,-0.39 0.365,-0.394 0.361,-0.394L0.258,-0.394L0.323,-0.526C0.327,-0.536 0.323,-0.546 0.317,-0.546C0.313,-0.546 0.307,-0.542 0.301,-0.54C0.293,-0.534 0.253,-0.516 0.233,-0.514C0.215,-0.512 0.211,-0.51 0.207,-0.5L0.166,-0.394L0.089,-0.394C0.083,-0.394 0.081,-0.392 0.079,-0.386L0.071,-0.36C0.069,-0.352 0.071,-0.35 0.077,-0.35L0.151,-0.35L0.045,-0.076C0.039,-0.058 0.035,-0.038 0.035,-0.02C0.035,-0.006 0.047,0.01 0.077,0.01C0.167,0.01 0.257,-0.074 0.269,-0.09C0.271,-0.094 0.271,-0.096 0.267,-0.098L0.256,-0.11C0.252,-0.114 0.25,-0.114 0.246,-0.11C0.24,-0.104 0.178,-0.054 0.155,-0.054C0.143,-0.054 0.137,-0.062 0.137,-0.072C0.137,-0.084 0.147,-0.108 0.155,-0.13L0.243,-0.35Z" style="fill:rgb(163,2,1);fill-rule:nonzero;"/>
                </g>
                <g transform="matrix(64,0,0,64,544.96,0)">
                    <path d="M0.251,-0.537C0.287,-0.537 0.31,-0.572 0.31,-0.595C0.31,-0.62 0.289,-0.645 0.249,-0.645C0.218,-0.645 0.193,-0.618 0.193,-0.591C0.193,-0.566 0.211,-0.537 0.251,-0.537ZM0.232,-0.28C0.249,-0.327 0.262,-0.364 0.262,-0.384C0.262,-0.404 0.25,-0.416 0.226,-0.416C0.138,-0.416 0.048,-0.3 0.042,-0.294C0.04,-0.29 0.042,-0.288 0.046,-0.285L0.056,-0.276C0.06,-0.272 0.064,-0.272 0.068,-0.276C0.082,-0.292 0.128,-0.344 0.144,-0.344C0.152,-0.344 0.156,-0.34 0.156,-0.332C0.156,-0.32 0.15,-0.301 0.14,-0.274L0.112,-0.196C0.072,-0.085 0.056,-0.038 0.056,-0.018C0.056,-0.002 0.064,0.01 0.085,0.01C0.194,0.01 0.264,-0.086 0.27,-0.094C0.274,-0.098 0.272,-0.1 0.268,-0.104L0.257,-0.115C0.254,-0.118 0.25,-0.118 0.248,-0.114C0.242,-0.106 0.19,-0.052 0.17,-0.05C0.162,-0.05 0.158,-0.056 0.158,-0.064C0.158,-0.074 0.162,-0.09 0.176,-0.128L0.232,-0.28Z" style="fill:rgb(163,2,1);fill-rule:nonzero;"/>
                </g>
                <g transform="matrix(64,0,0,64,563.648,0)">
                    <path d="M0.243,-0.35L0.347,-0.35C0.353,-0.35 0.356,-0.351 0.357,-0.355L0.365,-0.384C0.367,-0.39 0.365,-0.394 0.361,-0.394L0.258,-0.394L0.323,-0.526C0.327,-0.536 0.323,-0.546 0.317,-0.546C0.313,-0.546 0.307,-0.542 0.301,-0.54C0.293,-0.534 0.253,-0.516 0.233,-0.514C0.215,-0.512 0.211,-0.51 0.207,-0.5L0.166,-0.394L0.089,-0.394C0.083,-0.394 0.081,-0.392 0.079,-0.386L0.071,-0.36C0.069,-0.352 0.071,-0.35 0.077,-0.35L0.151,-0.35L0.045,-0.076C0.039,-0.058 0.035,-0.038 0.035,-0.02C0.035,-0.006 0.047,0.01 0.077,0.01C0.167,0.01 0.257,-0.074 0.269,-0.09C0.271,-0.094 0.271,-0.096 0.267,-0.098L0.256,-0.11C0.252,-0.114 0.25,-0.114 0.246,-0.11C0.24,-0.104 0.178,-0.054 0.155,-0.054C0.143,-0.054 0.137,-0.062 0.137,-0.072C0.137,-0.084 0.147,-0.108 0.155,-0.13L0.243,-0.35Z" style="fill:rgb(163,2,1);fill-rule:nonzero;"/>
                </g>
            </g>
            <g transform="matrix(1,0,0,1,840.08,206.096)">
                <g transform="matrix(64,0,0,64,0,0)">
                    <path d="M0.368,-0.31C0.355,-0.272 0.34,-0.246 0.322,-0.218C0.296,-0.176 0.198,-0.058 0.164,-0.058C0.156,-0.058 0.148,-0.064 0.148,-0.074C0.148,-0.094 0.17,-0.148 0.195,-0.207C0.233,-0.297 0.252,-0.35 0.252,-0.374C0.252,-0.394 0.238,-0.416 0.21,-0.416C0.125,-0.416 0.06,-0.338 0.044,-0.32C0.042,-0.316 0.042,-0.314 0.044,-0.312L0.055,-0.302C0.058,-0.298 0.064,-0.298 0.066,-0.302C0.084,-0.322 0.122,-0.356 0.138,-0.356C0.148,-0.356 0.156,-0.35 0.156,-0.34C0.156,-0.326 0.141,-0.279 0.113,-0.217C0.072,-0.126 0.048,-0.074 0.048,-0.036C0.048,-0.016 0.07,0.01 0.094,0.01C0.192,0.01 0.288,-0.124 0.328,-0.181L0.335,-0.177C0.324,-0.148 0.28,-0.034 0.28,-0.02C0.28,-0.002 0.292,0.01 0.312,0.01C0.396,0.01 0.468,-0.074 0.478,-0.09C0.48,-0.094 0.48,-0.098 0.478,-0.1L0.466,-0.109C0.462,-0.112 0.458,-0.112 0.456,-0.108C0.442,-0.09 0.404,-0.052 0.39,-0.052C0.384,-0.052 0.38,-0.054 0.38,-0.064C0.38,-0.07 0.392,-0.11 0.42,-0.19L0.49,-0.394C0.492,-0.402 0.49,-0.406 0.48,-0.406L0.412,-0.406C0.406,-0.406 0.4,-0.406 0.398,-0.4L0.368,-0.31Z" style="fill:rgb(163,2,1);fill-rule:nonzero;"/>
                </g>
                <g transform="matrix(64,0,0,64,32.128,0)">
                    <path d="M0.243,-0.35L0.347,-0.35C0.353,-0.35 0.356,-0.351 0.357,-0.355L0.365,-0.384C0.367,-0.39 0.365,-0.394 0.361,-0.394L0.258,-0.394L0.323,-0.526C0.327,-0.536 0.323,-0.546 0.317,-0.546C0.313,-0.546 0.307,-0.542 0.301,-0.54C0.293,-0.534 0.253,-0.516 0.233,-0.514C0.215,-0.512 0.211,-0.51 0.207,-0.5L0.166,-0.394L0.089,-0.394C0.083,-0.394 0.081,-0.392 0.079,-0.386L0.071,-0.36C0.069,-0.352 0.071,-0.35 0.077,-0.35L0.151,-0.35L0.045,-0.076C0.039,-0.058 0.035,-0.038 0.035,-0.02C0.035,-0.006 0.047,0.01 0.077,0.01C0.167,0.01 0.257,-0.074 0.269,-0.09C0.271,-0.094 0.271,-0.096 0.267,-0.098L0.256,-0.11C0.252,-0.114 0.25,-0.114 0.246,-0.11C0.24,-0.104 0.178,-0.054 0.155,-0.054C0.143,-0.054 0.137,-0.062 0.137,-0.072C0.137,-0.084 0.147,-0.108 0.155,-0.13L0.243,-0.35Z" style="fill:rgb(163,2,1);fill-rule:nonzero;"/>
                </g>
                <g transform="matrix(64,0,0,64,51.52,0)">
                    <path d="M0.3,-0.11C0.298,-0.112 0.294,-0.11 0.292,-0.108C0.27,-0.078 0.23,-0.048 0.184,-0.048C0.156,-0.048 0.13,-0.072 0.13,-0.112C0.13,-0.148 0.136,-0.176 0.14,-0.186C0.178,-0.188 0.232,-0.2 0.286,-0.228C0.344,-0.26 0.378,-0.306 0.378,-0.357C0.378,-0.386 0.354,-0.416 0.308,-0.416C0.254,-0.416 0.198,-0.39 0.158,-0.354C0.076,-0.28 0.034,-0.174 0.034,-0.096C0.034,-0.026 0.074,0.01 0.14,0.01C0.228,0.01 0.296,-0.054 0.318,-0.09C0.32,-0.094 0.32,-0.096 0.315,-0.099L0.3,-0.11ZM0.26,-0.368C0.282,-0.368 0.29,-0.35 0.29,-0.332C0.29,-0.304 0.27,-0.274 0.248,-0.256C0.214,-0.23 0.166,-0.218 0.148,-0.218C0.16,-0.272 0.21,-0.368 0.26,-0.368Z" style="fill:rgb(163,2,1);fill-rule:nonzero;"/>
                </g>
            </g>
        </g>
    </g>
</svg>
