<?xml version="1.0" encoding="UTF-8" standalone="no"?>
<!DOCTYPE svg PUBLIC "-//W3C//DTD SVG 1.1//EN" "http://www.w3.org/Graphics/SVG/1.1/DTD/svg11.dtd">
<svg width="100%" height="100%" viewBox="0 0 395 86" version="1.1" xmlns="http://www.w3.org/2000/svg" xmlns:xlink="http://www.w3.org/1999/xlink" xml:space="preserve" xmlns:serif="http://www.serif.com/" style="fill-rule:evenodd;clip-rule:evenodd;stroke-linejoin:round;stroke-miterlimit:2;">
    <path d="M78.153,10.59C78.153,9.125 77.807,8.436 76.688,8.436L74.704,8.436C74.444,8.436 74.357,8.348 74.357,8.045L74.357,7.053C74.357,6.795 74.444,6.709 74.789,6.709C75.222,6.709 77.289,6.838 81.432,6.838C85.054,6.838 87.123,6.709 87.641,6.709C87.899,6.709 87.985,6.795 87.985,7.012L87.985,8.09C87.985,8.348 87.899,8.436 87.641,8.436L85.829,8.436C84.535,8.436 83.761,9.209 83.717,10.116C83.673,10.636 83.588,13.221 83.588,15.721L83.588,21.071C83.588,23.225 83.63,26.288 83.717,27.669C83.847,29.653 84.191,31.636 85.227,33.017C86.694,34.997 89.023,35.689 91.091,35.689C93.073,35.689 95.49,34.91 96.868,33.621C98.51,31.982 99.37,29.48 99.37,26.332L99.37,18.57C99.37,15.119 99.024,11.322 98.895,10.334C98.766,9.211 98.077,8.438 97.127,8.438L95.573,8.438C95.316,8.438 95.229,8.307 95.229,8.133L95.229,7.053C95.229,6.795 95.316,6.709 95.573,6.709C96.006,6.709 97.989,6.838 100.836,6.838C103.51,6.838 104.889,6.709 105.233,6.709C105.623,6.709 105.666,6.838 105.666,7.053L105.666,8.045C105.666,8.305 105.623,8.436 105.406,8.436L103.855,8.436C102.3,8.436 102.128,9.641 102.042,10.116C101.957,10.636 101.957,16.671 101.957,17.233C101.957,17.835 101.87,25.34 101.7,27.065C101.439,30.598 100.403,33.274 98.076,35.342C96.264,36.983 93.504,38.016 90.227,38.016C88.157,38.016 85.656,37.672 84.017,36.983C81.515,35.948 79.79,33.963 78.927,31.206C78.323,29.306 78.153,26.458 78.153,20.808L78.153,10.59Z" style="fill:rgb(153,0,0);fill-rule:nonzero;"/>
    <path d="M106.876,27.752C107.047,27.752 107.134,27.84 107.134,28.098C107.221,29.477 107.566,31.116 108.774,33.016C110.067,35.082 112.31,36.118 114.467,36.118C116.793,36.118 120.071,34.653 120.071,31.075C120.071,27.108 118.261,25.811 113.69,24.089C112.31,23.573 109.463,22.362 107.394,20.468C105.927,19.083 105.237,16.931 105.237,14.3C105.237,11.884 106.186,9.902 108.257,8.261C109.983,6.798 111.88,6.193 114.381,6.193C117.226,6.193 118.952,6.881 119.814,7.228C120.245,7.4 120.504,7.312 120.72,7.097L121.279,6.538C121.453,6.364 121.625,6.28 121.883,6.28C122.143,6.28 122.229,6.538 122.229,6.968C122.229,7.659 122.919,13.695 122.919,14.128C122.919,14.3 122.832,14.386 122.66,14.431L121.971,14.648C121.797,14.689 121.624,14.648 121.539,14.386C121.106,13.179 120.417,11.452 118.864,9.816C117.744,8.609 116.364,8.004 114.381,8.004C110.929,8.004 109.55,10.764 109.55,12.359C109.55,13.826 109.723,15.119 110.757,16.24C111.88,17.363 114.294,18.396 116.02,18.916C118.519,19.691 120.589,20.555 122.229,22.277C123.607,23.746 124.384,25.554 124.384,28.447C124.384,33.707 120.935,38.017 115.243,38.017C111.706,38.017 109.636,37.242 107.911,35.949C107.394,35.603 107.135,35.429 106.877,35.429C106.618,35.429 106.445,35.775 106.187,36.206C105.929,36.637 105.757,36.726 105.412,36.726C105.068,36.726 104.893,36.466 104.893,36.035C104.98,35.515 105.583,28.529 105.668,28.014C105.713,27.754 105.757,27.67 105.928,27.67L106.876,27.752Z" style="fill:rgb(153,0,0);fill-rule:nonzero;"/>
    <path d="M154.743,30.34C154.874,30.469 154.915,30.598 154.829,30.77C152.241,34.481 148.101,38.016 141.979,38.016C136.458,38.016 133.355,36.375 130.681,33.961C127.489,31.117 126.025,26.113 126.025,22.32C126.025,18.093 127.404,14.039 130.422,10.761C132.75,8.261 136.458,6.191 141.634,6.191C145.603,6.191 148.792,7.398 150.343,8.261C150.945,8.607 151.121,8.607 151.207,8.261L151.551,7.138C151.637,6.882 151.723,6.882 152.24,6.882C152.757,6.882 152.845,6.966 152.845,7.571C152.845,8.348 153.706,15.245 153.878,16.538C153.923,16.798 153.878,16.929 153.706,16.974L152.886,17.232C152.671,17.316 152.542,17.144 152.413,16.798C151.893,15.245 150.86,13.091 149.05,11.193C147.153,9.381 144.91,8.002 141.545,8.002C134.648,8.002 131.801,14.213 131.801,20.422C131.801,23.094 132.577,28.184 135.768,31.633C138.616,34.653 141.116,34.996 143.186,34.996C147.929,34.996 151.679,32.627 153.492,29.994C153.707,29.691 153.879,29.564 154.01,29.691L154.743,30.34Z" style="fill:rgb(153,0,0);fill-rule:nonzero;"/>
    <path d="M168.199,37.111C165.268,35.947 163.758,34.049 163.069,31.33C162.551,29.392 162.378,26.504 162.378,20.851L162.378,10.59C162.378,9.082 162.077,8.391 160.739,8.391L158.712,8.391C158.456,8.391 158.411,8.305 158.411,8.004L158.411,7.053C158.411,6.795 158.456,6.709 158.8,6.709C159.232,6.709 161.344,6.838 164.707,6.838C168.07,6.838 170.14,6.709 170.615,6.709C170.961,6.709 171.004,6.795 171.004,6.967L171.004,8.09C171.004,8.305 170.961,8.391 170.658,8.391L168.504,8.391C167.25,8.391 166.516,9.209 166.432,10.159C166.389,10.548 166.346,13.565 166.346,15.766L166.346,18.612C166.346,20.895 166.516,26.372 166.561,27.753C166.604,29.737 166.948,31.765 167.942,33.23C169.536,35.56 172.298,36.335 174.798,36.335C177.256,36.335 179.756,35.515 181.266,33.964C182.948,32.152 183.509,29.566 183.509,26.372L183.509,17.147C183.509,13.868 183.423,11.366 183.294,10.29C183.165,9.167 182.473,8.392 181.352,8.392L179.456,8.392C179.198,8.392 179.153,8.263 179.153,8.046L179.153,7.011C179.153,6.794 179.198,6.708 179.456,6.708C179.888,6.708 181.87,6.837 184.759,6.837C187.735,6.837 189.114,6.708 189.503,6.708C189.892,6.708 189.935,6.882 189.935,7.011L189.935,7.96C189.935,8.218 189.892,8.39 189.675,8.39L187.907,8.39C186.311,8.39 186.182,9.599 186.054,10.115C185.966,10.547 185.966,16.67 185.966,17.273C185.966,17.876 185.88,25.425 185.751,27.107C185.493,30.64 184.544,33.359 182.13,35.427C180.403,37.025 177.775,38.015 174.021,38.015C171.782,38.015 169.624,37.717 168.199,37.111" style="fill-rule:nonzero;"/>
    <path d="M205.247,35.041C205.247,35.73 205.634,35.947 206.193,35.947L207.572,35.947C207.964,35.947 208.05,36.076 208.05,36.334L208.05,37.025C208.05,37.326 207.964,37.5 207.704,37.5C207.4,37.5 206.066,37.369 203.609,37.369C201.409,37.369 200.029,37.5 199.726,37.5C199.465,37.5 199.379,37.369 199.379,37.025L199.379,36.334C199.379,36.031 199.513,35.947 199.941,35.947L201.193,35.947C201.669,35.947 202.011,35.73 202.056,34.955C202.099,33.832 202.142,32.453 202.142,31.332L202.142,25.639C202.142,23.914 202.142,22.666 200.892,21.76C199.855,20.985 198.82,20.985 197.743,20.985C197.053,20.985 195.544,21.286 194.248,22.667C193.386,23.616 193.257,24.778 193.257,25.597L193.257,34.525C193.257,35.689 193.386,35.949 194.291,35.949L195.37,35.949C195.716,35.949 195.802,36.078 195.802,36.377L195.802,37.113C195.802,37.371 195.716,37.502 195.499,37.502C195.198,37.502 194.034,37.371 191.746,37.371C189.549,37.371 188.168,37.502 187.91,37.502C187.693,37.502 187.607,37.371 187.607,37.113L187.607,36.336C187.607,36.078 187.693,35.949 188.037,35.949L189.289,35.949C189.85,35.949 190.15,35.818 190.15,35.084L190.15,24.994C190.15,23.701 189.461,22.969 188.382,22.449L188.036,22.277C187.735,22.15 187.692,22.021 187.692,21.89L187.692,21.673C187.692,21.458 187.864,21.329 188.081,21.241L191.79,19.173C192.134,19.001 192.394,18.87 192.567,18.87C192.78,18.87 192.866,19.042 192.909,19.39L193.212,22.021L193.298,22.021C194.552,20.468 197.051,18.871 199.208,18.871C200.501,18.871 201.837,19.129 202.874,19.818C204.167,20.683 205.245,22.839 205.245,23.916L205.245,35.041L205.247,35.041Z" style="fill-rule:nonzero;"/>
    <path d="M212.409,24.818C212.409,23.355 212.148,22.578 209.993,22.234C209.691,22.191 209.603,22.105 209.603,21.931L209.603,21.542C209.603,21.411 209.691,21.327 209.904,21.241C211.286,20.723 212.925,20.032 214.562,19.128C214.909,18.956 215.122,18.868 215.381,18.868C215.597,18.868 215.64,19.083 215.597,19.388C215.511,20.12 215.511,22.837 215.511,26.415L215.511,31.116C215.511,32.798 215.511,34.35 215.554,34.821C215.64,35.643 215.767,35.946 216.242,35.946L218.226,35.946C218.572,35.946 218.656,36.075 218.656,36.333L218.656,37.067C218.656,37.37 218.572,37.499 218.269,37.499C217.923,37.499 215.941,37.37 214.128,37.37C211.628,37.37 209.945,37.499 209.474,37.499C209.257,37.499 209.128,37.411 209.128,37.153L209.128,36.29C209.128,36.032 209.257,35.946 209.558,35.946L211.669,35.946C212.146,35.946 212.315,35.772 212.361,35.081C212.404,33.786 212.404,32.452 212.404,31.159L212.404,24.818L212.409,24.818ZM210.465,11.668C210.465,10.59 211.371,9.426 213.095,9.426C214.607,9.426 215.338,10.59 215.338,11.539C215.338,12.658 214.562,13.912 212.836,13.912C211.888,13.912 210.465,13.051 210.465,11.668" style="fill-rule:nonzero;"/>
    <path d="M227.758,33.402L227.886,33.402C228.576,31.72 231.595,24.347 232.029,22.664C232.331,21.5 232.029,20.81 231.255,20.81L230.392,20.81C230.261,20.81 230.218,20.593 230.218,20.378L230.218,19.603C230.218,19.343 230.306,19.257 230.476,19.257C231.08,19.257 232.031,19.386 233.927,19.386C235.611,19.386 236.644,19.257 237.031,19.257C237.377,19.257 237.42,19.3 237.42,19.644L237.42,20.378C237.42,20.679 237.42,20.81 237.205,20.81L236.388,20.81C235.869,20.81 235.439,20.894 235.049,21.287C234.403,21.889 232.246,26.59 231.599,28.185C231.08,29.476 227.89,36.722 227.72,37.025C227.373,37.627 227.158,38.015 226.685,38.015C226.254,38.015 225.997,37.626 225.779,37.111C225.693,36.894 222.546,28.701 222.415,28.355C222.288,28.011 220.519,23.093 220.218,22.404C219.656,21.154 219.226,20.81 218.447,20.81L217.587,20.81C217.372,20.81 217.327,20.636 217.327,20.378L217.327,19.603C217.327,19.3 217.415,19.257 217.804,19.257C218.279,19.257 219.009,19.386 221.425,19.386C223.712,19.386 224.833,19.257 225.308,19.257C225.652,19.257 225.738,19.343 225.738,19.603L225.738,20.378C225.738,20.636 225.695,20.81 225.439,20.81L224.574,20.81C224.142,20.81 223.799,21.07 223.799,21.628C223.799,22.403 224.92,25.983 225.178,26.718C225.433,27.537 227.286,32.496 227.758,33.402" style="fill-rule:nonzero;"/>
    <path d="M239.447,25.898C239.361,26.287 239.316,26.978 239.316,27.966C239.316,32.195 241.993,35.384 245.441,35.384C248.072,35.384 249.924,33.876 250.661,32.452C250.747,32.28 250.919,32.194 251.048,32.237L251.61,32.54C251.739,32.583 251.823,32.71 251.61,33.185C250.834,34.91 248.588,37.884 244.752,37.884C242.295,37.884 239.578,37.154 237.983,34.822C236.473,32.627 236.086,31.031 236.086,28.011C236.086,26.329 236.518,23.441 238.801,21.156C240.655,19.256 242.813,18.869 244.969,18.869C249.928,18.869 251.309,23.529 251.309,25.209C251.309,25.811 250.789,25.898 250.102,25.898L239.447,25.898ZM246.302,24.605C247.119,24.605 247.468,24.39 247.468,24C247.468,23.01 246.947,20.164 244.148,20.164C242.249,20.164 240.441,21.412 239.62,24.605L246.302,24.605Z" style="fill-rule:nonzero;"/>
    <path d="M255.34,25.898C255.34,23.699 254.996,23.267 253.785,22.621L252.965,22.189C252.707,22.105 252.623,22.06 252.623,21.888L252.623,21.626C252.623,21.456 252.707,21.37 252.965,21.241L257.236,19.04C257.497,18.911 257.669,18.868 257.84,18.868C258.1,18.868 258.143,19.128 258.143,19.388L258.36,22.361L258.532,22.361C259.827,20.379 261.852,18.611 263.708,18.611C265.175,18.611 265.905,19.515 265.905,20.509C265.905,21.759 264.87,22.62 264.094,22.62C263.619,22.62 263.188,22.448 262.846,22.274C262.498,22.059 261.981,21.93 261.42,21.93C260.731,21.93 259.608,22.36 258.877,23.741C258.617,24.216 258.442,24.991 258.442,25.124L258.442,34.179C258.442,35.513 258.75,35.947 259.651,35.947L261.676,35.947C261.938,35.947 261.979,36.076 261.979,36.334L261.979,37.111C261.979,37.371 261.938,37.5 261.764,37.5C261.505,37.5 259.52,37.371 257.192,37.371C254.518,37.371 252.709,37.5 252.451,37.5C252.278,37.5 252.192,37.412 252.192,37.068L252.192,36.334C252.192,36.031 252.278,35.947 252.666,35.947L254.35,35.947C254.998,35.947 255.299,35.687 255.299,35.127C255.342,33.705 255.342,32.195 255.342,29.953L255.342,25.898L255.34,25.898Z" style="fill-rule:nonzero;"/>
    <path d="M266.959,36.636C266.744,36.507 266.744,36.247 266.701,36.032L265.97,31.934C265.929,31.719 266.058,31.631 266.228,31.586L266.79,31.461C266.962,31.416 267.091,31.504 267.177,31.719L268.259,33.83C269.12,35.426 269.722,36.506 272.007,36.506C273.519,36.506 275.415,35.6 275.415,33.572C275.415,31.631 274.466,30.51 271.232,29.605C268.687,28.873 266.142,27.537 266.142,24.126C266.142,21.151 268.947,18.866 272.183,18.866C274.248,18.866 275.371,19.386 276.148,19.772C276.795,20.075 276.877,20.29 276.922,20.545L277.568,23.565C277.568,23.739 277.482,23.87 277.267,23.956L276.747,24.126C276.575,24.171 276.488,24.126 276.359,23.911L274.892,21.929C274.375,21.109 273.556,20.247 271.871,20.247C270.234,20.247 268.554,21.239 268.554,23.093C268.554,25.593 270.578,26.07 272.693,26.671C275.841,27.577 277.827,28.872 277.87,32.192C277.827,35.684 274.98,37.881 271.314,37.881C269.206,37.885 267.482,37.025 266.959,36.636" style="fill-rule:nonzero;"/>
    <path d="M282.185,24.818C282.185,23.355 281.924,22.578 279.769,22.234C279.468,22.191 279.381,22.105 279.381,21.931L279.381,21.542C279.381,21.411 279.468,21.327 279.683,21.241C281.066,20.723 282.704,20.032 284.343,19.128C284.687,18.956 284.9,18.868 285.158,18.868C285.375,18.868 285.418,19.083 285.375,19.388C285.289,20.12 285.289,22.837 285.289,26.415L285.289,31.116C285.289,32.798 285.289,34.35 285.332,34.821C285.418,35.643 285.547,35.946 286.021,35.946L288.005,35.946C288.349,35.946 288.433,36.075 288.433,36.333L288.433,37.067C288.433,37.37 288.349,37.499 288.048,37.499C287.702,37.499 285.718,37.37 283.907,37.37C281.407,37.37 279.724,37.499 279.251,37.499C279.034,37.499 278.905,37.411 278.905,37.153L278.905,36.29C278.905,36.032 279.034,35.946 279.335,35.946L281.448,35.946C281.923,35.946 282.095,35.772 282.138,35.081C282.181,33.786 282.181,32.452 282.181,31.159L282.181,24.818L282.185,24.818ZM280.247,11.668C280.247,10.59 281.152,9.426 282.878,9.426C284.386,9.426 285.118,10.59 285.118,11.539C285.118,12.658 284.345,13.912 282.615,13.912C281.666,13.912 280.247,13.051 280.247,11.668" style="fill-rule:nonzero;"/>
    <path d="M294,31.98C294,35.212 295.465,35.773 296.242,35.773C297.234,35.773 298.482,35.601 299.088,35.212C299.306,35.083 299.478,35.126 299.607,35.296L299.825,35.687C299.952,35.859 299.868,36.033 299.738,36.16C299.306,36.594 297.54,37.885 294.95,37.885C292.841,37.885 290.767,35.86 290.767,34.223C290.767,32.453 290.896,28.659 290.896,28.055L290.896,27.108C290.896,26.331 290.939,23.442 290.982,21.629L288.353,21.629C287.963,21.629 287.706,21.457 287.706,21.111C287.706,20.767 287.966,20.636 288.48,20.336C289.515,19.732 292.838,16.369 293.398,14.902C293.527,14.558 293.743,14.472 294.002,14.472C294.348,14.472 294.434,14.773 294.434,15.117L294.217,19.388L300.213,19.388C300.471,19.388 300.6,19.603 300.514,19.775L300.082,21.285C300.037,21.5 299.951,21.629 299.692,21.629L294.13,21.629C294.046,23.615 294.001,25.682 294.001,27.668L294.001,31.98L294,31.98Z" style="fill-rule:nonzero;"/>
    <path d="M301.333,46.9C301.333,45.994 302.284,45.215 303.317,45.215C304.139,45.215 304.913,45.605 305.303,45.691C305.604,45.738 305.948,45.691 306.206,45.434C306.852,44.658 309.053,39.74 309.655,38.059C309.442,36.981 304.868,23.528 304.524,22.62C304.006,21.542 303.618,20.806 302.498,20.806L301.375,20.806C301.074,20.806 301.03,20.681 301.03,20.421L301.03,19.558C301.03,19.388 301.074,19.257 301.375,19.257C301.766,19.257 302.799,19.388 305.346,19.388C307.543,19.388 308.881,19.257 309.356,19.257C309.698,19.257 309.743,19.388 309.743,19.558L309.743,20.466C309.743,20.681 309.698,20.806 309.485,20.806L308.665,20.806C308.19,20.806 308.018,21.111 308.103,21.759C308.236,22.708 311.167,32.195 311.642,33.142L311.814,33.142C312.246,32.453 315.998,23.529 316.255,22.449C316.515,21.369 316.169,20.806 315.521,20.806L314.833,20.806C314.57,20.806 314.529,20.681 314.529,20.466L314.529,19.603C314.529,19.388 314.57,19.257 314.787,19.257C315.349,19.257 316.255,19.388 318.324,19.388C319.488,19.388 320.48,19.257 320.953,19.257C321.214,19.257 321.214,19.431 321.214,19.603L321.214,20.421C321.214,20.681 321.214,20.806 320.998,20.806L320.31,20.806C319.835,20.806 319.232,21.023 318.8,21.587C317.851,22.751 315.003,29.304 312.027,36.075C309.916,40.862 308.236,44.871 307.462,46.293C306.855,47.416 306.08,49.098 303.793,49.098C302.154,49.098 301.333,48.195 301.333,46.9" style="fill-rule:nonzero;"/>
    <path d="M329.998,34.91C328.017,32.541 327.626,30.943 327.626,27.883C327.626,25.682 328.789,22.922 331.335,20.94C333.576,19.213 335.689,18.87 337.111,18.87C339.482,18.87 341.855,20.075 343.15,21.37C345.089,23.356 346.08,25.597 346.08,28.401C346.08,33.1 341.855,37.885 336.552,37.885C334.482,37.885 331.808,37.068 329.998,34.91M342.458,27.969C342.458,23.182 338.964,20.164 336.767,20.164C335.601,20.164 334.482,20.422 333.447,21.543C331.763,23.268 331.16,25.035 331.16,28.313C331.16,30.729 331.423,32.366 332.802,34.352C333.791,35.774 335.044,36.594 337.07,36.594C340.347,36.594 342.458,32.584 342.458,27.969" style="fill-rule:nonzero;"/>
    <path d="M350.482,21.457L347.503,21.457C347.287,21.457 347.205,21.369 347.287,20.982L347.462,19.687C347.503,19.431 347.636,19.386 347.98,19.386L350.482,19.386L350.482,18.568C350.482,14.298 351.687,11.498 353.373,9.601C355.658,7.099 358.029,6.191 360.441,6.191C362.472,6.191 364.367,6.966 364.367,8.605C364.367,9.64 363.246,10.46 362.555,10.46C362.125,10.46 361.694,10.372 361.348,10.2C360.961,9.985 360.487,9.425 360.313,9.208C359.752,8.519 359.151,8.218 358.331,8.218C357.211,8.218 356.049,8.519 355.098,9.728C353.504,11.751 353.588,15.505 353.588,18.525L353.588,19.386L358.807,19.386C359.11,19.386 359.153,19.644 359.11,19.816L358.893,21.242C358.85,21.412 358.68,21.457 358.331,21.457L353.587,21.457L353.587,25.297C353.587,30.383 353.587,34.352 353.632,34.822C353.716,35.558 353.845,35.947 354.753,35.947L357.21,35.947C357.599,35.947 357.685,36.031 357.685,36.291L357.685,36.982C357.685,37.328 357.599,37.5 357.384,37.5C357.124,37.5 355.529,37.371 352.208,37.371C349.837,37.371 347.638,37.5 347.29,37.5C347.031,37.5 346.945,37.412 346.945,37.199L346.945,36.25C346.945,36.031 347.031,35.947 347.378,35.947L349.447,35.947C350.267,35.947 350.439,35.427 350.482,34.437L350.482,21.457Z" style="fill-rule:nonzero;"/>
    <path d="M80.62,76.241C80.103,75.854 79.845,75.723 79.629,75.723C79.37,75.723 79.198,76.024 78.94,76.452C78.681,76.931 78.465,76.973 78.163,76.973C77.905,76.973 77.688,76.756 77.774,76.284C77.947,75.206 78.378,69.729 78.508,68.481C78.55,68.221 78.637,68.221 78.81,68.221L79.456,68.264C79.629,68.264 79.714,68.35 79.714,68.612C79.757,69.991 79.845,71.415 81.267,73.61C82.562,75.633 84.934,76.803 87.304,76.803C89.892,76.803 93.169,75.204 93.169,71.325C93.169,66.883 89.979,65.243 86.528,64.038C85.192,63.56 82.086,62.483 80.233,60.545C78.809,59.12 78.077,57.096 78.077,54.247C78.077,52.092 79.413,49.979 80.749,48.726C82.302,47.259 84.459,46.659 86.788,46.659C89.245,46.659 91.142,47.388 91.875,47.735C92.264,47.952 92.479,47.909 92.695,47.692L93.256,47.173C93.472,46.999 93.599,46.917 93.817,46.917C94.031,46.917 94.16,47.259 94.16,47.646C94.16,49.156 94.722,53.555 94.766,54.506C94.766,54.719 94.722,54.805 94.55,54.848L94.03,54.978C93.902,55.021 93.816,54.978 93.772,54.848C93.426,53.596 92.867,51.918 91.099,50.064C89.935,48.812 88.425,48.21 86.399,48.21C82.561,48.21 81.181,51.06 81.181,53.255C81.181,54.464 81.439,55.884 82.517,57.005C83.768,58.257 86.182,59.207 87.433,59.595C90.408,60.544 92.823,61.275 94.375,63.173C95.497,64.509 96.272,66.193 96.272,69.037C96.272,74.126 93.168,78.482 87.474,78.482C84.459,78.486 82.346,77.579 80.62,76.241" style="fill-rule:nonzero;"/>
    <path d="M100.486,75.378C98.502,73.009 98.113,71.415 98.113,68.351C98.113,66.153 99.278,63.392 101.822,61.411C104.064,59.682 106.177,59.342 107.6,59.342C109.972,59.342 112.345,60.549 113.638,61.844C115.579,63.825 116.57,66.069 116.57,68.87C116.57,73.571 112.345,78.356 107.039,78.356C104.97,78.355 102.296,77.534 100.486,75.378M112.948,68.436C112.948,63.65 109.455,60.631 107.256,60.631C106.092,60.631 104.971,60.891 103.936,62.01C102.254,63.736 101.651,65.502 101.651,68.781C101.651,71.195 101.91,72.836 103.289,74.816C104.281,76.24 105.532,77.06 107.56,77.06C110.834,77.061 112.948,73.05 112.948,68.436" style="fill-rule:nonzero;"/>
    <path d="M134.395,69.083C134.395,71.153 134.395,73.265 134.483,74.173C134.61,75.509 135.086,75.681 135.603,75.681C135.862,75.681 136.509,75.681 137.026,75.552C137.373,75.466 137.503,75.552 137.545,75.724L137.675,76.286C137.718,76.544 137.632,76.632 137.459,76.675L132.931,78.181C132.672,78.269 132.413,78.358 132.069,78.358C131.895,78.358 131.724,78.269 131.681,77.837L131.335,75.335L131.249,75.335C130.042,77.017 127.54,78.356 125.383,78.356C124.177,78.356 122.753,78.225 121.331,76.37C119.562,74.087 119.649,72.663 119.649,67.919L119.649,62.917C119.604,61.712 119.003,61.409 118.009,61.278C117.276,61.237 117.061,61.19 117.061,60.975L117.061,60.2C117.061,59.942 117.147,59.854 117.535,59.854L121.374,59.854C121.632,59.854 121.806,59.811 121.978,59.768C122.15,59.768 122.322,59.725 122.451,59.725C122.753,59.725 122.97,59.942 122.926,60.243C122.884,60.632 122.753,62.655 122.753,65.202L122.753,68.264C122.753,69.992 122.322,72.748 123.702,74.734C124.78,76.287 125.988,76.371 127.151,76.371C128.316,76.371 130.042,75.25 130.86,74.218C131.035,73.998 131.292,73.441 131.292,73.052L131.292,62.788C131.206,61.579 130.516,61.364 129.438,61.278C128.705,61.278 128.49,61.19 128.49,60.975L128.49,60.243C128.49,59.895 128.577,59.854 129.007,59.854L133.017,59.854C133.319,59.854 133.535,59.811 133.75,59.768C133.965,59.768 134.139,59.725 134.269,59.725C134.528,59.725 134.7,59.942 134.657,60.155C134.612,60.544 134.397,61.665 134.397,65.893L134.397,69.082L134.395,69.082L134.395,69.083Z" style="fill-rule:nonzero;"/>
    <path d="M143.857,72.448C143.857,75.68 145.323,76.241 146.099,76.241C147.091,76.241 148.342,76.069 148.945,75.68C149.161,75.551 149.331,75.594 149.462,75.766L149.676,76.153C149.805,76.327 149.719,76.501 149.59,76.628C149.161,77.062 147.393,78.356 144.805,78.356C142.692,78.356 140.622,76.329 140.622,74.69C140.622,72.921 140.75,69.128 140.75,68.524L140.75,67.575C140.75,66.801 140.794,63.911 140.838,62.097L138.206,62.097C137.817,62.097 137.561,61.925 137.561,61.579C137.561,61.233 137.817,61.106 138.336,60.802C139.371,60.2 142.69,56.839 143.252,55.37C143.382,55.024 143.598,54.94 143.856,54.94C144.2,54.94 144.287,55.241 144.287,55.586L144.071,59.854L150.064,59.854C150.324,59.854 150.453,60.071 150.367,60.243L149.935,61.753C149.89,61.968 149.804,62.097 149.546,62.097L143.984,62.097C143.899,64.079 143.856,66.153 143.856,68.134L143.857,72.448Z" style="fill-rule:nonzero;"/>
    <path d="M153.745,54.337C153.745,51.704 153.225,51.233 151.677,50.712L150.942,50.454C150.684,50.366 150.641,50.325 150.641,50.196L150.641,49.805C150.641,49.635 150.768,49.592 151.159,49.377L155.641,47.004C155.987,46.829 156.289,46.659 156.636,46.659C156.894,46.659 157.066,47.004 156.98,47.735C156.894,48.466 156.851,57.222 156.851,59.381L156.851,62.137L157.066,62.137C158.576,60.328 161.075,59.336 162.974,59.336C164.784,59.336 166.036,59.893 167.241,61.061C169.184,62.873 169.098,65.076 169.098,67.4L169.098,69.857C169.098,72.273 169.184,74.947 169.184,75.766C169.184,76.283 169.874,76.412 170.78,76.412L171.513,76.412C171.859,76.412 171.988,76.498 171.988,76.799L171.988,77.445C171.988,77.791 171.9,77.963 171.644,77.963C171.341,77.963 169.96,77.834 167.501,77.834C165.388,77.834 163.837,77.963 163.449,77.963C163.149,77.963 163.063,77.834 163.063,77.488L163.063,76.758C163.063,76.541 163.106,76.412 163.363,76.412L164.355,76.412C165.087,76.412 165.948,76.324 165.993,75.592C166.036,74.988 165.993,72.703 165.993,71.324L165.993,67.834C165.993,65.418 165.821,63.693 164.57,62.527C163.707,61.711 162.801,61.32 161.725,61.32C160.474,61.32 158.921,61.752 157.716,63.129C157.325,63.607 156.853,64.469 156.853,65.244L156.853,74.644C156.853,76.025 156.982,76.414 157.802,76.414L159.095,76.414C159.396,76.414 159.57,76.5 159.57,76.76L159.57,77.49C159.57,77.793 159.484,77.965 159.224,77.965C158.88,77.965 157.111,77.836 155.128,77.836C152.97,77.836 151.333,77.965 150.944,77.965C150.77,77.965 150.643,77.836 150.643,77.535L150.643,76.76C150.643,76.457 150.815,76.414 151.29,76.414L152.196,76.414C152.884,76.414 153.53,76.24 153.618,75.723C153.747,74.908 153.747,70.161 153.747,67.357L153.747,54.337L153.745,54.337Z" style="fill-rule:nonzero;"/>
    <path d="M175.694,66.365C175.608,66.759 175.563,67.445 175.563,68.436C175.563,72.664 178.236,75.855 181.688,75.855C184.317,75.855 186.172,74.344 186.904,72.92C186.99,72.748 187.164,72.662 187.293,72.705L187.854,73.008C187.985,73.051 188.071,73.18 187.854,73.654C187.077,75.382 184.835,78.355 180.999,78.355C178.54,78.355 175.826,77.623 174.228,75.293C172.718,73.092 172.332,71.496 172.332,68.481C172.332,66.796 172.762,63.909 175.049,61.622C176.902,59.725 179.058,59.34 181.213,59.34C186.173,59.34 187.554,63.995 187.554,65.678C187.554,66.282 187.034,66.366 186.345,66.366L175.694,66.365ZM182.551,65.073C183.37,65.073 183.715,64.856 183.715,64.469C183.715,63.479 183.198,60.631 180.393,60.631C178.497,60.631 176.686,61.881 175.866,65.071L182.551,65.073Z" style="fill-rule:nonzero;"/>
    <path d="M191.895,66.366C191.895,64.167 191.551,63.735 190.34,63.089L189.522,62.657C189.262,62.571 189.178,62.53 189.178,62.354L189.178,62.098C189.178,61.924 189.262,61.84 189.522,61.711L193.792,59.51C194.05,59.379 194.224,59.336 194.396,59.336C194.656,59.336 194.699,59.596 194.699,59.854L194.914,62.831L195.086,62.831C196.379,60.847 198.409,59.079 200.264,59.079C201.727,59.079 202.461,59.983 202.461,60.977C202.461,62.225 201.428,63.088 200.649,63.088C200.176,63.088 199.746,62.915 199.399,62.743C199.053,62.528 198.537,62.397 197.975,62.397C197.284,62.397 196.163,62.829 195.432,64.209C195.172,64.684 195,65.459 195,65.586L195,74.646C195,75.982 195.301,76.412 196.205,76.412L198.232,76.412C198.49,76.412 198.535,76.543 198.535,76.802L198.535,77.578C198.535,77.837 198.49,77.966 198.322,77.966C198.06,77.966 196.075,77.837 193.747,77.837C191.073,77.837 189.26,77.966 189.004,77.966C188.832,77.966 188.742,77.88 188.742,77.533L188.742,76.802C188.742,76.5 188.832,76.412 189.219,76.412L190.901,76.412C191.549,76.412 191.85,76.152 191.85,75.595C191.893,74.173 191.893,72.662 191.893,70.418L191.895,66.366Z" style="fill-rule:nonzero;"/>
    <path d="M220.902,75.509C220.902,76.2 221.29,76.415 221.849,76.415L223.23,76.415C223.622,76.415 223.706,76.544 223.706,76.802L223.706,77.491C223.706,77.794 223.622,77.966 223.361,77.966C223.058,77.966 221.722,77.837 219.263,77.837C217.064,77.837 215.685,77.966 215.383,77.966C215.123,77.966 215.037,77.837 215.037,77.491L215.037,76.802C215.037,76.501 215.164,76.415 215.597,76.415L216.847,76.415C217.325,76.415 217.666,76.2 217.709,75.423C217.752,74.302 217.797,72.921 217.797,71.802L217.797,66.108C217.797,64.382 217.797,63.132 216.545,62.226C215.511,61.454 214.476,61.454 213.399,61.454C212.707,61.454 211.201,61.756 209.908,63.135C209.043,64.085 208.914,65.247 208.914,66.069L208.914,74.995C208.914,76.157 209.043,76.419 209.949,76.419L211.026,76.419C211.373,76.419 211.457,76.548 211.457,76.851L211.457,77.583C211.457,77.841 211.373,77.97 211.156,77.97C210.856,77.97 209.69,77.841 207.403,77.841C205.207,77.841 203.828,77.97 203.567,77.97C203.352,77.97 203.264,77.841 203.264,77.583L203.264,76.806C203.264,76.548 203.352,76.419 203.697,76.419L204.947,76.419C205.508,76.419 205.809,76.288 205.809,75.556L205.809,65.466C205.809,64.171 205.119,63.442 204.038,62.921L203.694,62.747C203.393,62.618 203.35,62.487 203.35,62.36L203.35,62.145C203.35,61.928 203.52,61.799 203.737,61.715L207.446,59.641C207.79,59.469 208.05,59.34 208.221,59.34C208.436,59.34 208.524,59.514 208.567,59.858L208.868,62.487L208.954,62.487C210.208,60.936 212.704,59.341 214.864,59.341C216.157,59.341 217.493,59.601 218.528,60.292C219.821,61.153 220.899,63.308 220.899,64.386L220.902,75.509Z" style="fill-rule:nonzero;"/>
    <path d="M237.418,74.516C234.312,71.586 232.806,66.58 232.806,62.443C232.806,58.434 234.099,54.296 237.202,51.018C239.402,48.684 243.284,46.662 247.984,46.662C251.909,46.662 255.142,48.128 256.695,49.031C257.257,49.38 257.468,49.334 257.558,49.031L257.902,47.783C257.988,47.521 258.077,47.521 258.462,47.521C258.853,47.521 258.937,47.607 258.937,48.211C258.937,49.029 259.8,55.369 260.015,56.576C260.058,56.795 260.015,56.965 259.843,57.01L259.197,57.18C258.982,57.225 258.896,57.18 258.765,56.838C258.161,55.414 257.214,53.342 255.402,51.486C253.591,49.634 251.306,48.168 247.898,48.168C240.179,48.168 237.076,55.022 237.119,61.32C237.119,63.82 237.896,68.695 241.258,72.404C244.191,75.679 246.65,76.023 249.535,76.023C254.412,76.023 258.205,73.349 260.189,70.548C260.318,70.33 260.404,70.289 260.533,70.417L261.095,70.849C261.222,70.937 261.31,71.023 261.181,71.238C258.593,74.99 254.411,78.484 248.331,78.484C243.241,78.486 240.004,76.889 237.418,74.516" style="fill-rule:nonzero;"/>
    <path d="M275.083,72.706C275.083,75.165 275.6,75.938 276.376,75.938C277.065,75.938 277.671,75.594 277.884,75.293C278.059,75.073 278.145,74.989 278.319,75.12L278.75,75.465C278.883,75.594 278.967,75.813 278.707,76.239C278.362,76.886 277.543,78.351 275.344,78.351C273.791,78.351 272.67,77.229 272.282,75.462L272.196,75.462C271.289,76.54 269.866,77.444 267.925,78.091C267.106,78.351 266.327,78.351 265.382,78.351C264.343,78.351 262.792,77.489 262.792,74.772C262.792,72.79 263.698,71.065 267.104,69.552C269.047,68.692 271.286,67.657 271.977,67.054L271.977,64.292C271.891,63.561 271.848,62.438 271.373,61.88C270.897,61.318 270.037,60.929 268.783,60.929C267.924,60.929 266.586,61.276 265.983,61.837C265.379,62.395 265.766,63.042 265.766,63.817C265.766,65.327 265.245,66.276 263.479,66.276C262.791,66.276 262.446,65.887 262.446,64.895C262.446,63.516 263.653,61.879 265.424,60.842C267.235,59.764 268.742,59.334 270.684,59.334C272.711,59.334 273.53,59.938 274.135,60.497C275.039,61.403 275.082,62.393 275.082,63.559L275.082,72.706L275.083,72.706ZM271.935,68.35C270.381,69.516 266.159,70.375 266.159,73.954C266.159,75.553 267.105,76.327 268.4,76.327C269.648,76.327 271.935,74.817 271.935,73.653L271.935,68.35Z" style="fill-rule:nonzero;"/>
    <path d="M285.958,64.988C285.958,67.227 285.958,73.742 286.003,75.076C286.046,75.811 286.216,76.416 287.124,76.416L289.062,76.416C289.452,76.416 289.538,76.546 289.538,76.804L289.538,77.537C289.538,77.793 289.452,77.968 289.279,77.968C288.976,77.968 287.079,77.839 284.407,77.839C281.646,77.839 279.923,77.968 279.532,77.968C279.318,77.968 279.232,77.793 279.232,77.537L279.232,76.804C279.232,76.503 279.318,76.416 279.792,76.416L281.859,76.416C282.337,76.416 282.767,76.113 282.808,75.337C282.851,73.998 282.851,66.582 282.851,64.084L282.851,61.365C282.851,58.303 282.808,54.382 282.722,53.259C282.636,51.791 281.95,51.105 280.568,50.673L279.706,50.367C279.491,50.285 279.447,50.242 279.447,50.152L279.447,49.807C279.447,49.678 279.577,49.592 279.837,49.504C281.347,48.816 283.284,48.039 284.88,47.004C285.269,46.744 285.527,46.658 285.786,46.658C286.089,46.658 286.175,46.875 286.134,47.435C286.089,49.806 285.958,58.775 285.958,61.148L285.958,64.988Z" style="fill-rule:nonzero;"/>
    <path d="M293.802,65.29C293.802,63.823 293.543,63.046 291.386,62.7C291.084,62.657 290.998,62.573 290.998,62.399L290.998,62.01C290.998,61.881 291.084,61.795 291.302,61.711C292.683,61.19 294.32,60.502 295.957,59.598C296.304,59.424 296.519,59.338 296.775,59.338C296.994,59.338 297.037,59.553 296.994,59.854C296.908,60.586 296.908,63.305 296.908,66.883L296.908,71.583C296.908,73.266 296.908,74.815 296.949,75.29C297.037,76.11 297.162,76.411 297.638,76.411L299.624,76.411C299.966,76.411 300.052,76.543 300.052,76.801L300.052,77.534C300.052,77.836 299.966,77.965 299.667,77.965C299.32,77.965 297.337,77.836 295.525,77.836C293.023,77.836 291.338,77.965 290.868,77.965C290.654,77.965 290.521,77.879 290.521,77.62L290.521,76.758C290.521,76.499 290.654,76.411 290.956,76.411L293.066,76.411C293.542,76.411 293.713,76.239 293.754,75.551C293.797,74.256 293.797,72.92 293.797,71.624L293.797,65.289L293.802,65.289L293.802,65.29ZM291.863,52.136C291.863,51.058 292.769,49.897 294.495,49.897C296.005,49.897 296.736,51.058 296.736,52.007C296.736,53.128 295.96,54.38 294.234,54.38C293.288,54.38 291.863,53.516 291.863,52.136" style="fill-rule:nonzero;"/>
    <path d="M304.693,61.925L301.715,61.925C301.502,61.925 301.414,61.839 301.502,61.452L301.674,60.155C301.715,59.895 301.845,59.856 302.191,59.856L304.693,59.856L304.693,59.034C304.693,54.766 305.898,51.964 307.582,50.067C309.867,47.567 312.24,46.661 314.654,46.661C316.679,46.661 318.578,47.436 318.578,49.073C318.578,50.11 317.457,50.928 316.767,50.928C316.335,50.928 315.902,50.844 315.56,50.668C315.169,50.452 314.697,49.893 314.525,49.68C313.963,48.989 313.361,48.688 312.541,48.688C311.421,48.688 310.255,48.989 309.306,50.196C307.712,52.223 307.798,55.975 307.798,58.993L307.798,59.856L313.017,59.856C313.318,59.856 313.363,60.112 313.318,60.288L313.105,61.712C313.062,61.884 312.888,61.925 312.543,61.925L307.799,61.925L307.799,65.763C307.799,70.851 307.799,74.821 307.844,75.294C307.93,76.026 308.059,76.415 308.967,76.415L311.422,76.415C311.809,76.415 311.895,76.501 311.895,76.759L311.895,77.448C311.895,77.794 311.809,77.966 311.596,77.966C311.333,77.966 309.741,77.837 306.42,77.837C304.049,77.837 301.848,77.966 301.505,77.966C301.243,77.966 301.157,77.88 301.157,77.665L301.157,76.716C301.157,76.501 301.243,76.415 301.589,76.415L303.659,76.415C304.477,76.415 304.651,75.895 304.694,74.907L304.694,66.798L304.693,61.925Z" style="fill-rule:nonzero;"/>
    <path d="M314.925,75.378C312.941,73.009 312.552,71.415 312.552,68.351C312.552,66.153 313.716,63.392 316.261,61.411C318.503,59.682 320.617,59.342 322.037,59.342C324.41,59.342 326.781,60.549 328.076,61.844C330.017,63.825 331.009,66.069 331.009,68.87C331.009,73.571 326.781,78.356 321.48,78.356C319.408,78.355 316.736,77.534 314.925,75.378M327.386,68.436C327.386,63.65 323.894,60.631 321.695,60.631C320.531,60.631 319.408,60.891 318.375,62.01C316.693,63.736 316.089,65.502 316.089,68.781C316.089,71.195 316.349,72.836 317.73,74.816C318.722,76.24 319.972,77.06 322,77.06C325.275,77.061 327.386,73.05 327.386,68.436" style="fill-rule:nonzero;"/>
    <path d="M334.449,66.366C334.449,64.167 334.103,63.735 332.894,63.089L332.078,62.657C331.818,62.571 331.732,62.53 331.732,62.354L331.732,62.098C331.732,61.924 331.818,61.84 332.078,61.711L336.347,59.51C336.605,59.379 336.777,59.336 336.951,59.336C337.21,59.336 337.253,59.596 337.253,59.854L337.47,62.831L337.642,62.831C338.935,60.847 340.964,59.079 342.818,59.079C344.285,59.079 345.015,59.983 345.015,60.977C345.015,62.225 343.982,63.088 343.205,63.088C342.73,63.088 342.298,62.915 341.953,62.743C341.607,62.528 341.091,62.397 340.531,62.397C339.841,62.397 338.72,62.829 337.988,64.209C337.73,64.684 337.554,65.459 337.554,65.586L337.554,74.646C337.554,75.982 337.855,76.412 338.761,76.412L340.787,76.412C341.048,76.412 341.089,76.543 341.089,76.802L341.089,77.578C341.089,77.837 341.048,77.966 340.873,77.966C340.613,77.966 338.632,77.837 336.304,77.837C333.63,77.837 331.82,77.966 331.56,77.966C331.388,77.966 331.302,77.88 331.302,77.533L331.302,76.802C331.302,76.5 331.388,76.412 331.775,76.412L333.457,76.412C334.105,76.412 334.406,76.152 334.406,75.595C334.451,74.173 334.451,72.662 334.451,70.418L334.449,66.366Z" style="fill-rule:nonzero;"/>
    <path d="M363.382,75.509C363.382,76.2 363.771,76.415 364.33,76.415L365.712,76.415C366.099,76.415 366.187,76.544 366.187,76.802L366.187,77.491C366.187,77.794 366.099,77.966 365.839,77.966C365.54,77.966 364.203,77.837 361.742,77.837C359.544,77.837 358.165,77.966 357.863,77.966C357.603,77.966 357.517,77.837 357.517,77.491L357.517,76.802C357.517,76.501 357.644,76.415 358.078,76.415L359.328,76.415C359.804,76.415 360.146,76.2 360.191,75.423C360.234,74.302 360.277,72.921 360.277,71.802L360.277,66.108C360.277,64.382 360.277,63.132 359.027,62.226C357.99,61.454 356.958,61.454 355.88,61.454C355.189,61.454 353.683,61.756 352.388,63.135C351.527,64.085 351.394,65.247 351.394,66.069L351.394,74.995C351.394,76.157 351.527,76.419 352.431,76.419L353.507,76.419C353.853,76.419 353.939,76.548 353.939,76.851L353.939,77.583C353.939,77.841 353.853,77.97 353.638,77.97C353.335,77.97 352.171,77.841 349.884,77.841C347.685,77.841 346.306,77.97 346.048,77.97C345.833,77.97 345.744,77.841 345.744,77.583L345.744,76.806C345.744,76.548 345.833,76.419 346.177,76.419L347.427,76.419C347.988,76.419 348.29,76.288 348.29,75.556L348.29,65.466C348.29,64.171 347.601,63.442 346.521,62.921L346.175,62.747C345.871,62.618 345.83,62.487 345.83,62.36L345.83,62.145C345.83,61.928 346.003,61.799 346.218,61.715L349.925,59.641C350.273,59.469 350.529,59.34 350.703,59.34C350.919,59.34 351.005,59.514 351.046,59.858L351.351,62.487L351.435,62.487C352.687,60.936 355.187,59.341 357.345,59.341C358.636,59.341 359.976,59.601 361.011,60.292C362.302,61.153 363.38,63.308 363.38,64.386L363.382,75.509Z" style="fill-rule:nonzero;"/>
    <path d="M370.542,65.29C370.542,63.823 370.283,63.046 368.126,62.7C367.826,62.657 367.74,62.573 367.74,62.399L367.74,62.01C367.74,61.881 367.826,61.795 368.042,61.711C369.421,61.19 371.062,60.502 372.699,59.598C373.044,59.424 373.261,59.338 373.519,59.338C373.732,59.338 373.777,59.553 373.732,59.854C373.646,60.586 373.646,63.305 373.646,66.883L373.646,71.583C373.646,73.266 373.646,74.815 373.691,75.29C373.777,76.11 373.904,76.411 374.38,76.411L376.361,76.411C376.71,76.411 376.792,76.543 376.792,76.801L376.792,77.534C376.792,77.836 376.71,77.965 376.406,77.965C376.058,77.965 374.076,77.836 372.265,77.836C369.765,77.836 368.081,77.965 367.607,77.965C367.394,77.965 367.263,77.879 367.263,77.62L367.263,76.758C367.263,76.499 367.394,76.411 367.695,76.411L369.806,76.411C370.281,76.411 370.454,76.239 370.494,75.551C370.538,74.256 370.538,72.92 370.538,71.624L370.538,65.289L370.542,65.289L370.542,65.29ZM368.605,52.136C368.605,51.058 369.511,49.897 371.236,49.897C372.744,49.897 373.478,51.058 373.478,52.007C373.478,53.128 372.701,54.38 370.974,54.38C370.027,54.38 368.605,53.516 368.605,52.136" style="fill-rule:nonzero;"/>
    <path d="M390.425,72.706C390.425,75.165 390.943,75.938 391.716,75.938C392.408,75.938 393.013,75.594 393.228,75.293C393.4,75.073 393.488,74.989 393.66,75.12L394.089,75.465C394.218,75.594 394.308,75.813 394.046,76.239C393.701,76.886 392.886,78.351 390.685,78.351C389.134,78.351 388.013,77.229 387.623,75.462L387.537,75.462C386.634,76.54 385.21,77.444 383.267,78.091C382.449,78.351 381.673,78.351 380.724,78.351C379.689,78.351 378.136,77.489 378.136,74.772C378.136,72.79 379.041,71.065 382.448,69.552C384.387,68.692 386.633,67.657 387.321,67.054L387.321,64.292C387.235,63.561 387.19,62.438 386.717,61.88C386.241,61.318 385.381,60.929 384.131,60.929C383.268,60.929 381.932,61.276 381.327,61.837C380.723,62.395 381.11,63.042 381.11,63.817C381.11,65.327 380.594,66.276 378.827,66.276C378.137,66.276 377.79,65.887 377.79,64.895C377.79,63.516 378.999,61.879 380.768,60.842C382.58,59.764 384.085,59.334 386.03,59.334C388.057,59.334 388.874,59.938 389.479,60.497C390.385,61.403 390.428,62.393 390.428,63.559L390.428,70.157L390.425,72.706ZM387.277,68.35C385.724,69.516 381.498,70.375 381.498,73.954C381.498,75.553 382.447,76.327 383.742,76.327C384.992,76.327 387.277,74.817 387.277,73.653L387.277,68.35Z" style="fill-rule:nonzero;"/>
    <g>
        <path d="M58.621,52.157C54.609,61.938 46.935,75.325 33.093,83.761C19.23,75.365 11.516,61.99 7.479,52.221C3.766,43.221 2.406,35.577 2.065,33.336C3.721,32.404 5.375,31.955 7.242,31.951L7.26,31.951C8.565,31.951 10.411,32.191 11.475,32.498L12.063,32.672C12.621,32.836 13.193,33.002 13.779,33.168C15.826,33.758 18.155,34.354 19.902,34.354L19.913,34.354C21.874,34.352 24.926,34.096 28.361,32.883C29.341,32.541 30.51,32.168 31.757,32.002L32.888,31.92L32.953,31.92L34.701,32.078C35.763,32.258 36.763,32.578 37.6,32.873C41.021,34.07 44.068,34.322 46.033,34.322L46.058,34.322C47.242,34.318 48.781,34.052 50.907,33.48C51.777,33.246 52.66,32.984 53.501,32.736L54.487,32.443C55.537,32.142 57.462,31.89 58.779,31.886L58.793,31.886C60.653,31.886 62.358,32.339 63.995,33.224C63.664,35.424 62.334,43.102 58.621,52.157M1.211,18.781L21.373,23.195C21.196,23.504 21.031,23.818 20.876,24.14L1.145,21.508C1.147,20.636 1.173,19.717 1.211,18.781M1.907,11.41L22.849,21.111C22.452,21.572 22.08,22.058 21.745,22.572L1.312,16.845C1.432,15.101 1.623,13.281 1.907,11.41M2.457,8.269C3.268,8.445 4.867,8.755 6.936,8.974L23.945,19.976C23.716,20.183 23.503,20.404 23.293,20.626L2.253,9.366C2.32,9 2.382,8.636 2.457,8.269M11.516,9.215C13.702,9.215 15.765,9.029 17.686,8.672L26.269,18.289C25.62,18.666 25.006,19.094 24.43,19.572L10.256,9.197C10.67,9.209 11.084,9.219 11.516,9.215M22.472,7.369L28.168,17.375C27.783,17.521 27.405,17.687 27.038,17.871L19.793,8.191C20.732,7.937 21.624,7.664 22.472,7.369M30.006,3.732L31.74,16.539C30.779,16.629 29.851,16.828 28.96,17.109L24.186,6.722C26.574,5.758 28.525,4.683 30.006,3.732M32.994,1.547C33.416,1.906 33.848,2.24 34.282,2.565L33.51,16.504C33.349,16.496 33.191,16.479 33.025,16.479L33.007,16.479C32.84,16.479 32.674,16.497 32.507,16.504L31.734,2.543C32.291,2.129 32.719,1.783 32.994,1.547M35.971,3.732C38.007,5.052 40.022,6.025 41.745,6.718L36.978,17.087C36.096,16.814 35.179,16.622 34.236,16.536L35.971,3.732ZM43.465,7.363C44.68,7.779 45.634,8.035 46.155,8.162L38.902,17.857C38.536,17.673 38.158,17.511 37.769,17.363L43.465,7.363ZM48.311,8.599C50.437,8.974 52.638,9.165 54.894,9.161C55.167,9.161 55.422,9.153 55.685,9.145L41.504,19.529C40.932,19.062 40.32,18.64 39.676,18.273L48.311,8.599ZM58.973,8.953C61.118,8.736 62.722,8.398 63.535,8.205C63.61,8.572 63.672,8.935 63.743,9.303L42.654,20.588C42.443,20.363 42.222,20.145 41.989,19.94L58.973,8.953ZM64.096,11.351C64.391,13.263 64.589,15.126 64.711,16.906L44.292,22.627C43.936,22.08 43.544,21.563 43.115,21.072L64.096,11.351ZM64.88,21.533L45.166,24.17C45.012,23.854 44.846,23.541 44.67,23.238L64.816,18.828C64.852,19.76 64.877,20.67 64.88,21.533M58.865,25.763C57.613,25.767 55.545,25.993 54.261,26.368L53.347,26.638C52.491,26.89 51.591,27.159 50.696,27.396C49.472,27.724 47.724,28.146 46.354,28.185C46.199,27.023 45.901,25.908 45.469,24.857L64.865,23.4C64.837,24.746 64.779,25.984 64.7,27.088C62.927,26.263 60.872,25.803 58.865,25.763M58.786,28.242L58.771,28.242C57.512,28.242 55.443,28.469 54.16,28.847L53.271,29.109C52.411,29.361 51.504,29.63 50.605,29.871L50.755,30.43L50.605,29.871C49.318,30.217 47.446,30.674 46.05,30.674L46.029,30.674C44.158,30.674 41.252,30.434 37.978,29.289C37.147,29.002 36.039,28.643 34.874,28.441C34.212,28.328 33.592,28.275 32.973,28.275C32.516,28.275 32.072,28.306 31.615,28.365C30.27,28.537 29.021,28.937 27.978,29.304C24.699,30.458 21.78,30.706 19.909,30.71L19.902,30.71C18.31,30.71 16.075,30.134 14.092,29.569L11.793,28.899C10.631,28.561 8.684,28.305 7.256,28.305L7.235,28.305C5.256,28.309 3.321,28.795 1.565,29.676C1.524,29.295 1.483,28.885 1.443,28.44C3.177,27.522 5.29,26.981 7.333,26.981L7.351,26.981C8.661,26.981 10.508,27.219 11.567,27.528L13.87,28.198L14.028,27.643L13.872,28.198C16.03,28.813 18.267,29.386 19.997,29.386L20.008,29.386C21.968,29.382 25.027,29.12 28.454,27.913C29.434,27.565 30.603,27.19 31.845,27.032L33.061,26.95L34.793,27.1C35.873,27.288 36.908,27.625 37.692,27.899C41.113,29.098 44.16,29.348 46.121,29.348L46.146,29.348C47.33,29.348 48.826,29.09 50.996,28.508C51.898,28.266 52.808,27.996 53.673,27.74L54.582,27.474C55.629,27.167 57.554,26.915 58.87,26.913L58.882,26.913C60.85,26.913 62.911,27.427 64.606,28.304C64.566,28.777 64.523,29.208 64.483,29.607C62.718,28.728 60.769,28.242 58.786,28.242M33.07,25.797L33.068,25.883L33.064,25.797C32.614,25.801 32.158,25.832 31.708,25.891C30.355,26.063 29.107,26.461 28.069,26.829C25.254,27.823 22.707,28.143 20.858,28.216C21.698,22.154 26.815,17.642 33.009,17.632L33.024,17.632C39.14,17.632 44.324,22.204 45.183,28.179C43.341,28.103 40.837,27.783 38.072,26.816C37.24,26.525 36.136,26.168 34.97,25.966L34.963,25.991L34.967,25.965C34.306,25.853 33.683,25.797 33.07,25.797M1.162,23.383L20.563,24.844C20.134,25.901 19.841,27.03 19.69,28.211C18.121,28.149 16.047,27.623 14.185,27.096L11.886,26.426C10.72,26.088 8.774,25.832 7.351,25.832L7.33,25.832C5.271,25.832 3.151,26.348 1.344,27.213C1.26,26.074 1.192,24.789 1.162,23.383M58.793,30.736L58.775,30.736C57.523,30.738 55.455,30.966 54.163,31.34L53.174,31.631C52.343,31.879 51.473,32.135 50.61,32.365L50.756,32.924L50.609,32.365C48.584,32.912 47.136,33.168 46.054,33.172L46.029,33.172C44.158,33.172 41.248,32.93 37.978,31.785C37.093,31.476 36.029,31.131 34.876,30.937C33.708,30.738 32.692,30.714 31.615,30.857C30.261,31.035 29.016,31.433 27.977,31.8C24.694,32.954 21.778,33.198 19.911,33.202L19.9,33.202C18.296,33.202 16.065,32.624 14.093,32.057L13.935,32.616L14.091,32.057C13.51,31.895 12.938,31.727 12.388,31.565L11.793,31.393C10.621,31.051 8.68,30.799 7.26,30.799L7.237,30.799C5.309,30.803 3.589,31.248 1.882,32.137C1.836,31.846 1.777,31.424 1.704,30.889C3.395,29.963 5.294,29.461 7.237,29.457L7.255,29.457C8.568,29.457 10.415,29.697 11.472,30.006L13.771,30.672L13.933,30.121L13.775,30.672C15.935,31.287 18.172,31.86 19.901,31.86L19.912,31.86C21.873,31.856 24.929,31.598 28.359,30.389C29.343,30.039 30.517,29.666 31.751,29.506L32.881,29.424L32.953,29.424L34.693,29.578C35.769,29.762 36.809,30.099 37.596,30.377C41.025,31.572 44.068,31.824 46.029,31.824L46.054,31.824C47.234,31.824 48.727,31.564 50.904,30.982C51.814,30.736 52.728,30.466 53.598,30.209L54.487,29.949C55.526,29.642 57.451,29.392 58.775,29.392L58.786,29.392C60.732,29.392 62.642,29.888 64.34,30.816C64.276,31.33 64.218,31.736 64.175,32.025C62.478,31.177 60.714,30.736 58.793,30.736M65.959,18.576L65.848,16.586C65.715,14.748 65.495,12.82 65.182,10.85L64.959,9.514C64.834,8.803 64.693,8.09 64.535,7.369L64.405,6.769L63.815,6.941C63.794,6.949 62.843,7.218 61.239,7.484L57.35,7.927C56.577,7.978 55.756,8.009 54.893,8.009C52.626,8.013 50.411,7.808 48.277,7.419L46.911,7.153C46.886,7.145 46.861,7.141 46.839,7.139C46.811,7.131 45.713,6.901 44.047,6.332L42.235,5.656C40.422,4.931 38.274,3.886 36.14,2.461L34.36,1.162C34.026,0.9 33.695,0.631 33.371,0.342L32.975,0L32.593,0.359C32.582,0.371 32.262,0.67 31.655,1.148L29.837,2.457C28.349,3.443 26.28,4.627 23.704,5.67L21.892,6.346C21.016,6.645 20.097,6.93 19.125,7.178C19.102,7.182 19.075,7.186 19.054,7.192L17.478,7.538C15.624,7.88 13.63,8.063 11.517,8.063C10.482,8.063 9.496,8.024 8.569,7.956L4.673,7.505C3.132,7.257 2.181,7.021 2.163,7.017L1.583,6.869L1.453,7.453C1.328,8.029 1.223,8.599 1.117,9.168L0.82,10.91C0.517,12.838 0.306,14.726 0.179,16.529L0.066,18.529C0.025,19.504 0.004,20.447 0,21.353L0.014,23.294C0.124,28.745 0.774,32.505 0.825,32.808C0.886,33.271 2.039,42.048 6.401,52.632C10.503,62.567 18.351,76.167 32.482,84.739L33.097,85.11L33.704,84.739C47.817,76.13 55.627,62.507 59.699,52.564C64.038,41.97 65.172,33.186 65.224,32.725C65.279,32.422 65.909,28.707 66.013,23.311L66.027,21.383C66.02,20.478 66.002,19.545 65.959,18.576" style="fill-rule:nonzero;"/>
        <path d="M49.429,45.779C49.253,45.959 49.019,46.055 48.768,46.055L44.372,46.064C43.854,46.064 43.436,45.641 43.433,45.127C43.433,44.613 43.855,44.191 44.369,44.191L45.085,44.187C45.085,44.191 45.089,44.195 45.089,44.199L45.1,44.187L46.042,44.187L48.772,44.183C49.283,44.183 49.704,44.605 49.704,45.119C49.702,45.368 49.605,45.602 49.429,45.779M48.562,47.387C48.396,47.551 48.166,47.635 47.885,47.635L45.204,47.639C44.755,47.639 44.442,47.307 44.323,46.756C44.341,46.756 44.355,46.76 44.37,46.76L48.766,46.754C48.79,46.754 48.812,46.738 48.837,46.738C48.789,47.009 48.709,47.24 48.562,47.387M47.461,58.698L45.681,58.7L45.205,48.341L47.886,48.337C47.907,48.337 47.922,48.327 47.944,48.323L47.461,58.698ZM48.641,60.156C48.641,60.572 48.299,60.914 47.883,60.914L45.324,60.919L45.32,61.269L45.32,60.919C44.903,60.919 44.569,60.576 44.569,60.158C44.569,59.742 44.907,59.404 45.32,59.404L46.767,59.4L47.878,59.396C48.296,59.396 48.641,59.738 48.641,60.156M46.572,66.561C46.266,66.561 46.015,66.314 46.015,65.994L45.817,61.617L47.328,61.617L47.127,66.005C47.127,66.314 46.879,66.561 46.572,66.561M43.04,41.995C43.04,41.415 43.277,40.933 43.525,40.427C43.824,39.818 44.155,39.146 44.018,38.304C44.447,38.48 45.003,38.786 45.417,39.222C45.41,39.228 45.402,39.236 45.396,39.24C45.295,39.351 45.191,39.467 45.104,39.568C45.083,39.586 43.313,41.312 44.586,43.491L44.362,43.491C44.237,43.495 44.114,43.512 43.992,43.538C43.799,43.452 43.043,43.055 43.04,41.995M46.879,38.254C46.976,37.977 46.979,37.678 46.929,37.399C47.649,38.053 48.497,39.088 48.508,40.335C48.519,41.881 47.533,43.071 47.137,43.489L46.886,43.489C46.576,43.065 45.976,42.1 46.613,41.029C46.739,40.814 47.318,39.922 47.389,39.752C47.487,39.545 47.476,39.35 47.476,39.35C47.379,39.508 47.209,39.696 47.209,39.696C47.044,39.876 46.476,40.466 46.296,40.682C45.357,41.822 45.986,43.066 46.234,43.49L45.421,43.494C44.022,41.618 45.519,40.141 45.609,40.051C45.713,39.934 45.814,39.821 45.911,39.717C46.303,39.291 46.641,38.924 46.879,38.254M48.958,38.847C49.256,38.484 49.533,38.253 49.76,38.109C49.584,39.722 50.422,41.326 50.437,41.347C50.836,42.725 49.472,43.393 49.138,43.534C49.019,43.505 48.897,43.487 48.764,43.487L48.055,43.487C48.573,42.817 49.213,41.706 49.203,40.329C49.203,39.748 48.958,38.847 48.958,38.847M49.879,43.93C50.663,43.449 51.497,42.513 51.08,41.086C51.073,41.066 50.084,39.16 50.569,37.639L50.731,37.125L50.195,37.186C50.112,37.194 49.385,37.319 48.548,38.258C47.721,36.916 46.382,36.088 46.299,36.041L44.968,35.254L45.832,36.539C45.986,36.768 46.393,37.535 46.221,38.019C46.127,38.29 46.008,38.496 45.871,38.685C44.986,37.79 43.637,37.423 43.58,37.408L42.885,37.224L43.17,37.882C43.559,38.775 43.252,39.398 42.899,40.116C42.636,40.653 42.341,41.253 42.345,41.994C42.345,42.953 42.82,43.572 43.281,43.919C42.946,44.218 42.734,44.648 42.734,45.132C42.738,45.746 43.086,46.278 43.593,46.556C43.669,47.38 44.032,47.902 44.496,48.154L44.985,58.773C44.348,58.927 43.866,59.476 43.866,60.158C43.866,60.888 44.417,61.469 45.114,61.576L45.319,66.008C45.319,66.699 45.881,67.26 46.571,67.26C47.262,67.26 47.823,66.699 47.823,66.025L48.028,61.586C48.758,61.507 49.339,60.906 49.335,60.158C49.335,59.451 48.823,58.889 48.158,58.759L48.647,48.146C48.794,48.076 48.938,48 49.053,47.884C49.373,47.564 49.542,47.097 49.578,46.511C49.697,46.439 49.822,46.375 49.924,46.277C50.23,45.97 50.403,45.556 50.399,45.125C50.4,44.65 50.199,44.23 49.879,43.93" style="fill-rule:nonzero;"/>
        <path d="M21.361,46.089L16.968,46.097C16.45,46.097 16.03,45.679 16.03,45.163C16.03,44.911 16.125,44.679 16.301,44.503C16.478,44.321 16.712,44.226 16.961,44.226L17.675,44.226C17.675,44.226 17.679,44.231 17.679,44.233L17.69,44.226L18.636,44.226L20.017,44.222L21.363,44.222C21.878,44.222 22.295,44.64 22.301,45.155C22.303,45.671 21.88,46.089 21.361,46.089M21.169,47.43C21.01,47.588 20.779,47.67 20.481,47.67L17.805,47.674C17.362,47.674 17.045,47.336 16.922,46.789C16.941,46.789 16.953,46.797 16.969,46.797L21.362,46.789C21.389,46.789 21.413,46.781 21.438,46.781C21.389,47.052 21.312,47.286 21.169,47.43M20.06,58.734L18.28,58.738L17.801,48.373L17.806,48.373L20.484,48.371C20.504,48.371 20.517,48.363 20.538,48.363L20.06,58.734ZM21.234,60.191C21.234,60.391 21.156,60.584 21.012,60.725C20.87,60.871 20.677,60.951 20.474,60.951L17.921,60.951L17.918,61.3L17.918,60.951C17.501,60.951 17.161,60.613 17.161,60.195C17.161,59.777 17.501,59.434 17.918,59.434L19.364,59.434L20.471,59.43C20.895,59.43 21.234,59.773 21.234,60.191M19.171,66.594C18.863,66.594 18.609,66.346 18.609,66.025L18.41,61.652L19.926,61.648L19.723,66.041C19.723,66.346 19.475,66.594 19.171,66.594M15.639,42.031C15.639,41.453 15.874,40.971 16.124,40.463C16.423,39.856 16.754,39.182 16.617,38.336C17.045,38.518 17.605,38.818 18.013,39.254C18.004,39.262 17.998,39.272 17.988,39.283C17.891,39.39 17.786,39.502 17.7,39.603C17.679,39.621 15.909,41.343 17.18,43.526L16.962,43.526C16.847,43.526 16.742,43.569 16.631,43.594C16.552,43.564 15.641,43.2 15.639,42.031M19.473,38.291C19.573,38.01 19.573,37.711 19.524,37.428C20.243,38.082 21.096,39.117 21.105,40.369C21.118,41.915 20.132,43.107 19.733,43.523L19.487,43.523C19.177,43.098 18.575,42.136 19.212,41.065C19.339,40.844 19.917,39.956 19.992,39.784C20.08,39.575 20.071,39.386 20.071,39.386C19.974,39.544 19.808,39.728 19.808,39.728C19.639,39.91 19.075,40.498 18.898,40.716C17.954,41.856 18.588,43.1 18.83,43.524L18.017,43.528C16.619,41.652 18.113,40.173 18.205,40.087C18.306,39.968 18.408,39.86 18.502,39.759C18.895,39.33 19.234,38.963 19.473,38.291M21.551,38.883C21.85,38.52 22.131,38.291 22.355,38.147C22.18,39.758 23.015,41.362 23.032,41.381C23.43,42.76 22.067,43.43 21.737,43.568C21.614,43.544 21.491,43.523 21.362,43.523L20.653,43.523C21.17,42.85 21.815,41.744 21.801,40.365C21.797,39.779 21.551,38.883 21.551,38.883M22.475,43.966C23.262,43.485 24.092,42.547 23.679,41.121C23.668,41.103 22.678,39.197 23.162,37.676L23.328,37.156L22.788,37.222C22.707,37.228 21.984,37.351 21.146,38.29C20.314,36.948 18.976,36.124 18.894,36.077L17.575,35.296L18.429,36.569C18.591,36.817 18.987,37.569 18.814,38.055C18.718,38.325 18.602,38.53 18.467,38.721C17.583,37.825 16.235,37.457 16.175,37.444L15.481,37.26L15.767,37.918C16.156,38.807 15.85,39.432 15.496,40.152C15.235,40.683 14.94,41.289 14.94,42.028C14.941,43.061 15.458,43.647 15.878,43.956C15.858,43.979 15.828,43.985 15.808,44.007C15.501,44.319 15.332,44.728 15.333,45.161C15.333,45.776 15.681,46.309 16.189,46.587C16.26,47.331 16.594,47.907 17.092,48.185L17.582,58.804C16.945,58.958 16.464,59.509 16.464,60.194C16.464,60.923 17.011,61.499 17.709,61.603L17.913,66.04C17.913,66.731 18.476,67.297 19.169,67.297C19.857,67.297 20.421,66.733 20.421,66.055L20.626,61.618C20.957,61.583 21.267,61.46 21.504,61.221C21.781,60.944 21.932,60.575 21.928,60.192C21.928,59.491 21.418,58.928 20.752,58.792L21.239,48.194C21.394,48.122 21.543,48.044 21.662,47.924C21.971,47.614 22.137,47.151 22.175,46.565C22.662,46.28 22.997,45.758 22.997,45.155C22.999,44.684 22.793,44.264 22.475,43.966" style="fill-rule:nonzero;"/>
        <path d="M37.107,47.829C36.834,48.102 36.47,48.255 36.086,48.255L29.938,48.261C29.141,48.261 28.493,47.615 28.489,46.821C28.489,46.022 29.138,45.37 29.935,45.37C29.935,45.37 34.029,45.37 34.039,45.364L36.086,45.364C36.881,45.364 37.528,46.01 37.528,46.804C37.528,47.193 37.381,47.555 37.107,47.829M34.855,50.273L31.107,50.277L31.103,50.277C30.505,50.277 29.962,49.63 29.753,48.945C29.815,48.949 29.876,48.964 29.937,48.964L36.085,48.953C36.16,48.953 36.236,48.939 36.312,48.932C36.09,49.598 35.482,50.273 34.855,50.273M34.395,65.932L31.635,65.934L30.948,50.953C30.999,50.962 31.049,50.974 31.102,50.974L31.106,50.974L34.854,50.97C34.933,50.97 35.009,50.949 35.084,50.94L34.395,65.932ZM36.043,67.827C36.043,68.489 35.504,69.026 34.845,69.026L31.277,69.032C30.615,69.032 30.075,68.493 30.074,67.835C30.074,67.173 30.612,66.634 31.27,66.634L33.963,66.63L34.838,66.63C35.5,66.63 36.039,67.165 36.043,67.827M33.928,76.009C33.928,76.249 33.834,76.481 33.661,76.655C33.488,76.829 33.263,76.923 33.017,76.923L33.013,76.923C32.769,76.923 32.54,76.829 32.367,76.655C32.192,76.487 32.098,76.257 32.098,75.993L31.807,69.731L34.215,69.727L33.928,76.009ZM27.941,42.433C27.939,41.596 28.275,40.908 28.631,40.18C29.089,39.248 29.56,38.287 29.254,37.032C29.869,37.259 30.797,37.698 31.455,38.434C31.376,38.52 31.299,38.608 31.214,38.7C31.079,38.845 30.937,38.999 30.815,39.143C30.787,39.168 28.272,41.616 30.236,44.669L29.932,44.669C29.748,44.669 29.574,44.701 29.402,44.744C29.244,44.684 27.945,44.128 27.941,42.433M33.065,37.156C33.254,36.625 33.186,36.031 33.049,35.523C34.128,36.402 35.729,38.048 35.74,40.113C35.761,42.38 34.286,44.111 33.747,44.663L33.571,44.663C33.283,44.229 32.969,43.53 32.969,42.731C32.967,41.2 33.714,40.308 33.714,40.308C33.714,40.308 32.769,40.949 32.606,42.358C32.529,43.034 32.676,43.747 33.117,44.667L32.221,44.667C31.879,44.163 30.955,42.71 31.922,41.082C32.102,40.779 33.068,39.535 33.174,39.293C33.298,39.006 33.287,38.736 33.287,38.736C33.152,38.959 32.918,39.218 32.918,39.218C32.685,39.474 31.893,40.296 31.641,40.595C30.208,42.337 31.389,44.251 31.634,44.667L31.092,44.667C28.987,41.919 31.196,39.744 31.318,39.625C31.459,39.463 31.595,39.316 31.725,39.172C32.27,38.586 32.736,38.078 33.065,37.156M37.514,37.492C37.061,39.658 37.788,41.441 37.81,41.492C38.385,43.48 36.964,44.458 36.526,44.708C36.385,44.679 36.234,44.661 36.083,44.661L34.685,44.663C35.414,43.782 36.457,42.167 36.44,40.111C36.436,39.582 36.339,39.086 36.189,38.613C36.697,38.013 37.173,37.676 37.514,37.492M37.284,45.031C38.004,44.469 39.047,43.264 38.467,41.262C38.46,41.241 37.655,39.241 38.357,37.043L38.518,36.523L37.979,36.587C37.94,36.591 37.004,36.732 35.903,37.894C34.845,35.677 32.569,34.308 32.444,34.232L31.287,33.549L31.967,34.711C31.974,34.723 32.727,36.027 32.41,36.924C32.269,37.315 32.097,37.617 31.9,37.895C30.697,36.614 28.862,36.172 28.783,36.153L28.107,35.995L28.385,36.632C28.955,37.939 28.513,38.835 28.005,39.874C27.63,40.64 27.241,41.435 27.243,42.438C27.244,43.823 27.982,44.686 28.635,45.122C28.124,45.518 27.79,46.13 27.79,46.821C27.793,47.663 28.286,48.382 28.993,48.735C29.11,49.532 29.588,50.35 30.261,50.739L30.238,50.741L30.942,65.973C30.052,66.131 29.375,66.905 29.375,67.836C29.377,68.825 30.143,69.631 31.111,69.713L31.402,76.014C31.402,76.442 31.571,76.848 31.873,77.153C32.18,77.456 32.582,77.626 33.01,77.626L33.018,77.626C33.448,77.626 33.853,77.456 34.157,77.151C34.461,76.844 34.63,76.438 34.626,76.024L34.918,69.721C35.929,69.682 36.742,68.852 36.742,67.827C36.738,66.868 36.018,66.083 35.095,65.956L35.796,50.684L35.792,50.684C36.476,50.266 36.976,49.461 37.08,48.698C37.267,48.602 37.446,48.479 37.601,48.325C38.007,47.917 38.231,47.378 38.227,46.805C38.227,46.068 37.853,45.415 37.284,45.031" style="fill-rule:nonzero;"/>
    </g>
</svg>
